/* XPM */
static char *_652_05f0c87dc4385d34738b607447a9171cbe0d8c3d678792fcab2a198fe9597c73[] = {
/* columns rows colors chars-per-pixel */
"48 48 71 1 ",
"  c #763D2E",
". c #793F2F",
"X c #6F3F32",
"o c #753F31",
"O c #7A402F",
"+ c #764233",
"@ c #7B4434",
"# c #7E4837",
"$ c #764638",
"% c #7C4738",
"& c #77493B",
"* c #7D4B3A",
"= c #824433",
"- c #8A4534",
"; c #824A37",
": c #8C4B37",
"> c #804738",
", c #844D3B",
"< c #8A4E3C",
"1 c #924E3B",
"2 c #9D4F3A",
"3 c #84503E",
"4 c #8C523E",
"5 c #93533E",
"6 c #9C523E",
"7 c #A14F3A",
"8 c #A4543E",
"9 c #A9553D",
"0 c #A4583F",
"q c #AB583F",
"w c #854F41",
"e c #855342",
"r c #8C5442",
"t c #8E5945",
"y c #8D5B49",
"u c #945542",
"i c #9B5542",
"p c #945945",
"a c #9C5A45",
"s c #945D49",
"d c #9D5D49",
"f c #A35640",
"g c #A85741",
"h c #A45C45",
"j c #AB5C43",
"k c #A35E49",
"l c #A95F48",
"z c #B15E43",
"x c #96614C",
"c c #9D624D",
"v c #966350",
"b c #9D6752",
"n c #A56046",
"m c #AC6146",
"M c #A4634C",
"N c #AB644A",
"B c #AC684E",
"V c #B16246",
"C c #B2664A",
"Z c #B86549",
"A c #B46A4D",
"S c #B96A4D",
"D c #A46650",
"F c #A86750",
"G c #A66952",
"H c #AC6C52",
"J c #B36D52",
"K c #B96E51",
"L c #B57155",
"P c #BC7154",
"I c #B07159",
/* pixels */
"Mpar,3a1ruudhs6uaidawX$raDhru6aipndduraidhd6wuip",
"hamd<<kgglBnhkgajBnli,,jNshklhhlFhiakflFmhhhghht",
"PCFSkChM8kShBjcgaJlMjMNhy,rVaM8MSp,@c8nJknhcjie,",
"NajMg6HZw.el7MSuo,h8dSkflk9fJjajMq6HmigNh8BVa9Nk",
"NChCk0B44,AB8NMmihA6mGHlhAhjBNNhCN8FMVaVN8AMAanS",
"NNhNNjna,,aNhnhmlhmlhnNhhmma<ujhmNjnkNhkNm5<dlhN",
"nhmMhNJJp3thNHLnhNnhHLn0NMjMsw<jMhMLJfjMhNsppjNn",
"JJHAd0hdCFSnajdjBBNijd0NHCajd##cSahhajGShajDzMBC",
"hD9a9hNCy+@80r:el869kAlB869a4#Mq59h3;sz68jHZdl86",
"CZu:<mNnmamhhNsmlNzhCk44hV6mddJnChqM345Cg,tuSmml",
"Bu+,5haihaahhhaahi545*+%,ajhahk6c0ad5<5aarri6,<k",
"h*:xmkhfamMnhk9ijNe;&#>;3cmdhhamDmjh8hlBmlkj5;tn",
"JAHZdmhM9hShMhcjdJNr=eC8HVdmkM8FCdmhM8MJhnjcjhJl",
"Najk86BC,.3h8NZahN# rSdajk9aJlajM96AVajnh2MZa8lh",
"546Cn8FnnunC=udJklN@,pBnhShjFNNfAa@pr44ZN8BMAa45",
",rkNNjnnNllp;#enhhh,,iNnhNmlkhlkNj45r5pNNhnhmh43",
"3uCDhBHSajM,,ys4jne,cPnfNMjcBBajMlBLSdqMnnHJk9Br",
"rrGSahnajDSk@#pzBJValdhNFZwO*hmFZdhjdqDSMhldjMAC",
"3e.+.#BzDj68fMVcN8i8kZkN8a9hShMq68fBAMji88MZp, i",
"MN<,#fBr5umhjBnClml8NMNNNl1:rNChVhlHMChChhBnNahl",
"Lu*,pja<,4hhhaahafjahuhaimu,ehhia5ukihadjahii<5h",
"h$#smhhjazMNnM8ahMcjdjhhNMlNm8aNs,ek8ijDnjdj<#3M",
"t4r<eNhc9MSMMqcj6e*dzcA8FCMlan7BSDChM8kShnjcjkJN",
"3@+r86Bma8hh8MZagmh85r*aV3o,Shijn86BNajnh8MCa8Vl",
",,<Nl6BMJhCN8CMCh5p6BchkhC,=cNNhCm8HNNhNN8JNCh45",
",5dmmjhnn4aNhhdma35nhhNhhn5@#5nhnNjahmhlNh6rhh,u",
",ajMmMHPr.ehmHSk8BMlGKNfNr;epeijMjMJJa9caNvtrjNM",
"AAGSdjMdzce*aldjNANhjchNHSr+3lmGSdhNdjc4*hCdjMAN",
"NBqa8hHZBl66gnZMNg#.rShMg* *4;Mja8hNlcji6jNVdN8f",
"Nmjm8mH54iVjhBkCh5@<NnNNlj=;eaNhmg1pNVhmNlBnChNj",
"Jkinhhh,<4hhhhuhi,<ahahhimu<rjjuh3$%<hiMp6hihhah",
"kilcmkk8alcnhagihNBjdh6hmclDN6hls;**o<zb,#s8ulnM",
"JVHSMmjr.eSkMjDjhJhcjdl8HVbCdn8MSp,@c9MJh,OyqhJm",
"Bazs@O4*,0Nh8rr,8Nh8aShhVMgaAhijMg6MNijnf6dCh0Nh",
"VNi4,5MpnhNN8MchhlA8BMu4hJhjHNNhAmfJNNhNN8Jdu455",
"NNu<5mhnCalNhNMmMhnu0u44imNghhlanp6hkmhhNjhr:#*p",
"MujFmnHAahMlBGSM8N*;xPBflMjFJBajs#3GJhjMhmGPs@3M",
"r<cSdjnajMSDMldjne,pzdhhHCajMhjBSp@*ajMSMhCsqMpe",
"ncq688BmMj6h8nChl628hmkB8a9aNjMja86hmMla68nZd,#6",
"NC65:4pmNjmfjBNNlljhCBNNlj8mBNNljhNANNjNhjAaue;:",
"Jn43,,,amshnhhsmaanhfrakanalihjsnMhdilskhhk3;*,,",
"kizMmMn8izcNhd9ijnMNroogmMjdh2ajGmdh7ijMmhkgu+eM",
"JCFAdNhe.*r*njdjhJhMNdmfHNdzae DJcNje rKnnhcjhJm",
"BklngfNnr7d6fnNifNhhnNkimhqar#<lN86Nlu8NhgnCi8Nh",
"NljHh8JNBhCN7ACBhNAgBBNhlB6:euNhBj8Ja5iCm-cNNhlN",
"NVhlm0hdVamNhaphaaHh8uhNhC5;rlNfmNhhr,rln;@3mkhZ",
"nijMlBISagMkNyr&OeMjse3fjMmFJBajcjMHSajMnNs3e0MM",
"JSd4wCBkqBKlhSnjMPNhCBjlHAaVBhzs5,<3,@pPNlAnzhr<"
};
