/* XPM */
static char *_0890_0ec1467fa68751aceae08bac8bf909eda4ee0f3a7e763a727eb5ba3db46b34f1[] = {
/* columns rows colors chars-per-pixel */
"48 48 254 2 ",
"   c #010101",
".  c #090907",
"X  c #120B08",
"o  c #0A1709",
"O  c #141A10",
"+  c #2C150C",
"@  c #0B260C",
"#  c #162A0B",
"$  c #192713",
"%  c #113610",
"&  c #29290C",
"*  c #3B3816",
"=  c #302F14",
"-  c #2F2D26",
";  c #1B2E20",
":  c #51120A",
">  c #6D1205",
",  c #44260B",
"<  c #4D3213",
"1  c #652A08",
"2  c #035907",
"3  c #14520F",
"4  c #354D10",
"5  c #086703",
"6  c #0B7706",
"7  c #18710A",
"8  c #306C17",
"9  c #06462B",
"0  c #14532C",
"q  c #2B5328",
"w  c #036938",
"e  c #0A783B",
"r  c #196F2B",
"t  c #2C722C",
"y  c #4A4D17",
"u  c #487414",
"i  c #4E4E2E",
"p  c #79522B",
"a  c #547031",
"s  c #6B6F2D",
"d  c #7D7C15",
"f  c #2A7845",
"g  c #696F53",
"h  c #585644",
"j  c #891804",
"k  c #9B1502",
"l  c #830E05",
"z  c #B71901",
"x  c #A61402",
"c  c #8D2605",
"v  c #BB2903",
"b  c #A92409",
"n  c #C92A02",
"m  c #C73805",
"M  c #D43A05",
"N  c #D42E00",
"B  c #87521B",
"V  c #B0750B",
"C  c #925926",
"Z  c #AE4F24",
"A  c #8E6E25",
"S  c #AB742E",
"D  c #886113",
"F  c #DB4504",
"G  c #CE500B",
"H  c #E54E04",
"J  c #EB4D07",
"K  c #E65204",
"L  c #E65C04",
"P  c #E95D03",
"I  c #E85605",
"U  c #F54F09",
"Y  c #D37111",
"T  c #E96806",
"R  c #EA7305",
"E  c #E97909",
"W  c #E77A18",
"Q  c #E17928",
"!  c #AB7150",
"~  c #D57757",
"^  c #0B8704",
"/  c #158505",
"(  c #148C19",
")  c #159414",
"_  c #0F8B14",
"`  c #2D8D10",
"'  c #37AF0F",
"]  c #1A8A28",
"[  c #189A3C",
"{  c #1A9029",
"}  c #299233",
"|  c #28A728",
" . c #28A936",
".. c #38A938",
"X. c #2AB436",
"o. c #38B638",
"O. c #34B02B",
"+. c #1EA13A",
"@. c #4B9A18",
"#. c #4CAB13",
"$. c #6DBC1B",
"%. c #43952B",
"&. c #6F922E",
"*. c #58BC28",
"=. c #55BC39",
"-. c #4CB12D",
";. c #6CB32F",
":. c #758E18",
">. c #3BC13E",
",. c #59CA1A",
"<. c #52CC13",
"1. c #67CF0E",
"2. c #69D50B",
"3. c #74D807",
"4. c #68C817",
"5. c #6CD714",
"6. c #76DA16",
"7. c #73CC0D",
"8. c #78E70A",
"9. c #4CC42B",
"0. c #46C336",
"q. c #5BC52A",
"w. c #67C327",
"e. c #75C92B",
"r. c #7DD420",
"t. c #169842",
"y. c #188945",
"u. c #319447",
"i. c #1BA642",
"p. c #29AA47",
"a. c #2CB54C",
"s. c #38BA47",
"d. c #36AF52",
"f. c #44B756",
"g. c #51B74C",
"h. c #6FB848",
"j. c #52B66E",
"k. c #589B46",
"l. c #3BC443",
"z. c #5BC460",
"x. c #90891A",
"c. c #B39013",
"v. c #9BA11E",
"b. c #918A2C",
"n. c #A68F2B",
"m. c #8DAC2E",
"M. c #ACB131",
"N. c #ADBB1C",
"B. c #ED8B09",
"V. c #EC8508",
"C. c #EE990B",
"Z. c #ED9811",
"A. c #D2A410",
"S. c #EFA40C",
"D. c #F1A90C",
"F. c #F0A20D",
"G. c #F2B30C",
"H. c #F3BA0C",
"J. c #EBA817",
"K. c #F2AD11",
"L. c #F3B412",
"P. c #F3BB14",
"I. c #EFBA18",
"U. c #CC9634",
"Y. c #F0922A",
"T. c #DFBA38",
"R. c #E8B031",
"E. c #DF951F",
"W. c #8BD816",
"Q. c #A9D91C",
"!. c #A8CF17",
"~. c #85E708",
"^. c #95EC09",
"/. c #8FEA12",
"(. c #B7F807",
"). c #B8E91C",
"_. c #ABF611",
"`. c #84CC26",
"'. c #99D527",
"]. c #87CA35",
"[. c #99D639",
"{. c #8AD230",
"}. c #B5DB2A",
"|. c #A9DB3A",
" X c #A7D625",
".X c #B7E42A",
"XX c #8DEC22",
"oX c #D3CD13",
"OX c #F4C31A",
"+X c #F4C915",
"@X c #F6D617",
"#X c #F0C814",
"$X c #C5F70E",
"%X c #FCF014",
"&X c #CBD72D",
"*X c #F7CC23",
"=X c #EADA26",
"-X c #F7D528",
";X c #F3C838",
":X c #F9DC36",
">X c #E8CE32",
",X c #D7E629",
"<X c #DAE73C",
"1X c #C8E92D",
"2X c #EAE72A",
"3X c #F6E539",
"4X c #EAF031",
"5X c #91AC51",
"6X c #97926B",
"7X c #ADB663",
"8X c #93974A",
"9X c #CE834C",
"0X c #EFAF48",
"qX c #D49168",
"wX c #F6B868",
"eX c #CFA36B",
"rX c #90C952",
"tX c #AFD14E",
"yX c #B9E146",
"uX c #ABE541",
"iX c #B3C965",
"pX c #DAD457",
"aX c #D0D04F",
"sX c #E6CA49",
"dX c #C6E549",
"fX c #D6EA4C",
"gX c #D9EA51",
"hX c #FAE544",
"jX c #F8EB4C",
"kX c #F6E948",
"lX c #ECEF53",
"zX c #E2EB52",
"xX c #F4EE52",
"cX c #F9ED50",
"vX c #F1F055",
"bX c #EAEC49",
"nX c #CCCF65",
"mX c #F3D06D",
"MX c #EEE972",
"NX c #6DC791",
"BX c #76CBA7",
"VX c #B8B796",
"CX c #919181",
"ZX c #86CF8E",
"AX c #EFD890",
"SX c #F5E991",
"DX c #F8D6A8",
"FX c #F2D9B6",
"GX c #F7ECAF",
"HX c #CBC699",
"JX c #FBE9DA",
"KX c #FBE3C9",
"LX c #FBDEC4",
"PX c None",
/* pixels */
"PXPXPXPXPXPXPXPXPXPXPXPXPXPXPXPXPXPXPXPXPXPXPXPXPXPXPXPXPXPXPXPXPXPXPXPXPXPXPXPXPXPXPXPXPXPXPXPX",
"PXPXPXPXPXPXPXPXPXPXPXPXPXPXPXPXPXPXPX  PXPXPXPXPXPXPXPXPXPXPXPX  X X   PXPXPXPXPXPXPXPXPXPXPXPX",
"PXPXPXPXPXPXPXPXPXPXPXPXPXPXPXPXPXPXO s i . PXPXPXPXPXPX  @ ; i g 7X8Xi . PXPXPXPXPXPXPXPXPXPXPX",
"PXPXPXPXPXPXPXPXPXPXPXPXPXPXPXPX  $ k.rXrXa . PXPXPXPX. % { o.z.ZXZXz.h.g o PXPXPXPXPXPXPXPXPXPX",
"PXPXPXPXPXPXPXPXPXPXPXPXPXPXPX. ; s.d.a.s.h.q   PXPXPXo 6 ^ ) X.j.ZXBXu.k.5X=   PXPXPXPXPXPXPXPX",
"PXPXPXPXPXPXPXPXPXPXPX  . . . 0 a.a.a.d.a.[ y.O PXPXPX# ^ ^ ) O.f.j.BXj.} h.rX-   PXPXPXPXPXPXPX",
"PXPXPXPXPXPXPXPXPXPXo r r r r e t.p.d.u.q i p <   PX. 3 ^ 7 / ` ..j.BXf.( } g.tXi   PXPXPXPXPXPX",
"PXPXPXPXPXPXPXPX  o | i.i.i.a.a.p.t.r p ! ~ ~ C X PXo 6 / ` ;.;.h.NXBXj.) {  .=.iXi   PXPXPXPXPX",
"PXPXPXPXPXPXPXPX$ .. .[ [ p.a.d.p.f ! qXqX~ S C &   # 7 :.'.;.| l.NXBXf.( ( { X.g.tXi   PXPXPXPX",
"PXPXPXPXPXPXPXo } O.+.[ [ p.a.p.y.q qX9X! S S B * + 3 @.;.` ` O.j.NXBXd._ _ _ | O.;.nX= PXPXPXPX",
"PXPXPXPXPXPX. ` .. .[ [ i.a.d.p.e 0 & p B C U.A < , 8 ;./ / | o.f.f.u.r 6 6 6 { | O.].nXX PXPXPX",
"PXPXPXPXPX  q >.| [ [ [ i.g.s.d.e w w = p C U.S < $ ` 7 6 ) X.{ 3 @ . . . o @ % 7 ) O.tX8X  PXPX",
"PXPXPXPXPX; -.-.-.%.u.p.s.%.t f f w w 9 = B S n., 5 6 5 6 _ 3 + > k +   PXPXPXPXX @ 3 @.dXi PXPX",
"PXPXPXPXO *.$.iXiX7XrXh.a &.m.8 w w w w 9 = D A = 5 6 6 2 & l z z z x > . PXPXPXPXPX. @ a aX& PX",
"PXPXPX. @.[.iX5X8 q i y &.XX<.9.q 9 w 9 9 ; < < & 5 5 2 + x z z z z z z j X PXPXPXPXPXPX  s s   ",
"PXPX  8 |.iXa % . + : s (.6.1.,.' 3 9 q ..l.X.] & 2 5 : z n m M M M M M G Z + PXPXPXPXPXPX. - X ",
"PXPX& tX7X4     X j A ).~.~.W.4.' ' -.0.>.o.>.l.s.r , M F F L T P U K L Y Q 9XO PXPXPXPXPXPXPXPX",
"PX. m.5X$   PXPX: c tX(.3.~.).' 4.5.9.0.>.>.>.o.0.+.1 U I T Y.0XY.T T P T W 0XeXX PXPXPXPXPXPXPX",
"  a 5Xo   PXPXX c A 4X$X^.).7.7.Q.1.q.9.>.>.>.o.r , m J I Y.DXKXDXwXV.R T V.E.MX6X  PXPXPXPXPXPX",
"O s o PXPXPXPX1 Y n.$X(.$X$X2.Q.7.5.4.,.0.-.O.3 1 M J I T wXJXJXJXDX0XV.R V.Z.0XFX- PXPXPXPXPXPX",
". . PXPXPXPX  V Y v.^.^.$X).Q.(.3.1.2.<.9.| 3 k F H H K R mXJXJXJXLXwXC.V.B.E.T.GXg PXPXPXPXPXPX",
"PXPXPXPXPXPXo A.V M.8.8.^..X)._._.8.3.<.' 4 k M J H H K T 0XKXJXJXLXmXK.C.C.J.T.SXCX  PXPXPXPXPX",
"PXPXPXPXPXPX& +XV m.~.2./.,X~.8.~.8.~.' * k M J J J H K U Y.DXJXJXLXmXG.C.C.J.>XMXVX. PXPXPXPXPX",
"PXPXPXPXPXPX< @XV m.3.1.W.W.3.2.2.8.<.= x M H H H H K H P W wXDXFXAX*XH.S.D.J.sXAXHXX PXPXPXPXPX",
"PXPXPXPXPXPXy @Xc.v./.1.6.3.2.1.1.' 4 x n F H H H H H H I T Y.R.sX;XP.H.G.G.I.>XpXDX$ PXPXPXPXPX",
"PXPXPXPXPXPXy %Xc.b.XX6.6.5.5.5.<.4 k n F H K K H H H K I P R Z.G.H.P.G.G.G.#XsXpXDX- PXPXPXPXPX",
"PXPXPXPXPXPX* @XA.x.).8.6.6.6.5.7 l n m K K J I K I I I P T R V.C.D.G.G.H.H.+XsXpXAX- PXPXPXPXPX",
"PXPXPXPXPXPX= @X=Xb.).8.XX6.6.` > z m F T P P P P P T T T R V.B.C.S.G.H.+X+X*XsXnXAX; PXPXPXPXPX",
"PXPXPXPXPXPXX oX%Xx.}.^.W.8.#.: n v F R R R R R R R R E V.B.C.C.D.G.H.+X#X#X*XpXMXVXo PXPXPXPXPX",
"PXPXPXPXPXPX  n.%Xc.v._./.W.4 x v G V.B.B.B.V.V.B.B.B.C.C.F.D.G.L.#X+X+X@X@X>XaXMX6X  PXPXPXPXPX",
"PXPXPXPXPXPXPXs %XoXA ).^.%.> z G Y S.J.F.F.F.F.F.F.F.K.K.G.P.P.OXOX#X@X@X=X<XaXSXi PXPXPXPXPXPX",
"PXPXPXPXPXPXPX& 2X%Xx.!.W., b v Y J.P.I.L.L.L.L.L.L.P.I.P.OXOX*X@X@X=X@X@X=XaXzXVX. PXPXPXPXPXPX",
"PXPXPXPXPXPXPX  n.%X&X:.@.Z v G E.OX+XOXOXOXOXOXOXOX*X*X*X*X-X=X-X-X=X%X=X,X&XMXh PXPXPXPXPXPXPX",
"PXPXPXPXPXPXPXPX4 bX%Xv.x.J.Y U.;X:X:X-X-X*X*X*X*X-X*X-X-X:X:X:X:X3X=X2X,X&X&X7XX PXPXPXPXPXPXPX",
"PXPXPXPXPXPXPXPX  d 4X,X3X>XR.sXhXhX3X3X:X:X:X:X:X:X:XhX3XhXhX3X3X3X2X,X&X}.vX< PXPXPXPXPXPXPXPX",
"PXPXPXPXPXPXPXPXPXX N.,X,X<XkXkXcXjXjXkXhXhXhXhXhXhXhXhXjXjXjXkX<X4X,X}.Q.3X&.  PXPXPXPXPXPXPXPX",
"PXPXPXPXPXPXPXPXPXPX& &X1X,XfXbXvXvXxXxXxXjXcXjXcXcXvXxXxXlXbXbXbX1X}.!.oX}.. PXPXPXPXPXPXPXPXPX",
"PXPXPXPXPXPXPXPXPXPX  4 $X!.1X<XfXlXlXlXvXvXvXvXlXxXlXlXzXzXfXdX.X X'.!.&X& PXPXPXPXPXPXPXPXPXPX",
"PXPXPXPXPXPXPXPXPXPXPX  y !.'.}.yXdXfXgXgXgXgXzXgXgXgXdXdXdX|.|.|.'.W.<Xi   PXPXPXPXPXPXPXPXPXPX",
"PXPXPXPXPXPXPXPXPXPXPXPX  u `.].'.|.|.yXyXdXdXdXdXyXyXyXuXtX[.'.`.$.}.s   PXPXPXPXPXPXPXPXPXPXPX",
"PXPXPXPXPXPXPXPXPXPXPXPXPX  8 q.w.`.{.[.[.[.|.[.[.[.rX].{.{.e.e.$.'.s   PXPXPXPXPXPXPXPXPXPXPXPX",
"PXPXPXPXPXPXPXPXPXPXPXPXPXPX. 0 0.*.$.w.w.e.e.e.e.e.e.e.w.w.$.*.`.s . PXPXPXPXPXPXPXPXPXPXPXPXPX",
"PXPXPXPXPXPXPXPXPXPXPXPXPXPXPX  3 } -.*.q.4.w.*.w.w.w.w.w.*.*.$.4   PXPXPXPXPXPXPXPXPXPXPXPXPXPX",
"PXPXPXPXPXPXPXPXPXPXPXPXPXPXPXPX  @ r X.O.*.*.*.q.q.=.=.=.=.%.$   PXPXPXPXPXPXPXPXPXPXPXPXPXPXPX",
"PXPXPXPXPXPXPXPXPXPXPXPXPXPXPXPXPXPX  % ]  ...p...g.s.d.t %   PXPXPXPXPXPXPXPXPXPXPXPXPXPXPXPXPX",
"PXPXPXPXPXPXPXPXPXPXPXPXPXPXPXPXPXPXPXPX  % t ] y.f 0 O   PXPXPXPXPXPXPXPXPXPXPXPXPXPXPXPXPXPXPX",
"PXPXPXPXPXPXPXPXPXPXPXPXPXPXPXPXPXPXPXPXPXPX  . .     PXPXPXPXPXPXPXPXPXPXPXPXPXPXPXPXPXPXPXPXPX",
"PXPXPXPXPXPXPXPXPXPXPXPXPXPXPXPXPXPXPXPXPXPXPXPXPXPXPXPXPXPXPXPXPXPXPXPXPXPXPXPXPXPXPXPXPXPXPXPX"
};
