/* XPM */
static char *_4911_4888737417461d2a809dbd8204ab65716226f9a88e071839fb62bad66ce74ca8[] = {
/* columns rows colors chars-per-pixel */
"48 48 224 2 ",
"   c #2A1432",
".  c #3A213F",
"X  c #54363B",
"o  c #2A0B44",
"O  c #2C0C4D",
"+  c #310F4F",
"@  c #271859",
"#  c #3B1659",
"$  c #2E0F56",
"%  c #392843",
"&  c #363A43",
"*  c #391664",
"=  c #3D1778",
"-  c #2A1D70",
";  c #342A69",
":  c #362B71",
">  c #303175",
",  c #42165E",
"<  c #502A53",
"1  c #4D1A66",
"2  c #462268",
"3  c #52297B",
"4  c #4B346C",
"5  c #71237A",
"6  c #6A445B",
"7  c #49456F",
"8  c #785B6C",
"9  c #6E5462",
"0  c #51636A",
"q  c #776063",
"w  c #99506D",
"e  c #896C70",
"r  c #B0747D",
"t  c #B74B74",
"y  c #CA647D",
"u  c #B28977",
"i  c #AC866D",
"p  c #28149E",
"a  c #3F1C89",
"s  c #342486",
"d  c #332095",
"f  c #291ABB",
"g  c #3E23BA",
"h  c #3C26A6",
"j  c #421D8C",
"k  c #451F96",
"l  c #532C82",
"z  c #423585",
"x  c #563986",
"c  c #482D96",
"v  c #5A3594",
"b  c #472488",
"n  c #623E9A",
"m  c #693691",
"M  c #553AB7",
"N  c #462BB0",
"B  c #2F7CA6",
"V  c #584F87",
"C  c #635A8F",
"Z  c #64409E",
"A  c #5B7597",
"S  c #7C6A8B",
"D  c #6E6494",
"F  c #786B92",
"G  c #737292",
"H  c #4D49A6",
"J  c #4F56B1",
"K  c #6649B2",
"L  c #7C78AA",
"P  c #2F1DC8",
"I  c #3725D6",
"U  c #3830CD",
"Y  c #472AC6",
"T  c #492AD4",
"R  c #4829D8",
"E  c #5635D9",
"W  c #4E34CF",
"Q  c #4726E2",
"!  c #492DE8",
"~  c #4837E7",
"^  c #5738E9",
"/  c #4D39F8",
"(  c #5939F8",
")  c #502BE2",
"_  c #623AE3",
"`  c #613CFD",
"'  c #6049C1",
"]  c #5E48EC",
"[  c #5E58EE",
"{  c #4749F4",
"}  c #5444FC",
"|  c #5755F7",
" . c #4F53F0",
".. c #6947EC",
"X. c #6743F9",
"o. c #6956F7",
"O. c #7256F6",
"+. c #6C50F3",
"@. c #4867F5",
"#. c #497EF3",
"$. c #5372F3",
"%. c #6D65FE",
"&. c #7D63FA",
"*. c #7E68F7",
"=. c #6A7CF9",
"-. c #7474FA",
";. c #A929A6",
":. c #B728AB",
">. c #B036AE",
",. c #CD2DBC",
"<. c #8B7588",
"1. c #BA6495",
"2. c #AC40BF",
"3. c #8A7FA2",
"4. c #AF71A4",
"5. c #CA5580",
"6. c #D06896",
"7. c #E56C94",
"8. c #D46BA1",
"9. c #E679B6",
"0. c #DE3AC9",
"q. c #E338CF",
"w. c #8E6FC0",
"e. c #BA7DD8",
"r. c #855AFB",
"t. c #9457F9",
"y. c #B95BFC",
"u. c #8665FB",
"i. c #8C74FE",
"p. c #957BFE",
"a. c #A662F8",
"s. c #B865F8",
"d. c #D441D1",
"f. c #E342D0",
"g. c #E775C1",
"h. c #4A8CA6",
"j. c #6B99B5",
"k. c #3E91FC",
"l. c #7FBAD4",
"z. c #4A84FA",
"x. c #568AFA",
"c. c #4D9AFC",
"v. c #4390EC",
"b. c #7490F2",
"n. c #54A5FC",
"m. c #58B4FD",
"M. c #4BABEF",
"N. c #6BB7FE",
"B. c #78B7EF",
"V. c #4FC4DE",
"C. c #76CCD8",
"Z. c #7ED6DA",
"A. c #78CBC7",
"S. c #59C4F9",
"D. c #59C0EE",
"F. c #68C5E6",
"G. c #77C8E8",
"H. c #65E3F2",
"J. c #9A8A87",
"K. c #978A97",
"L. c #AF8881",
"P. c #B69488",
"I. c #BA9999",
"U. c #B08F95",
"Y. c #9C8FAC",
"T. c #958CB2",
"R. c #A893A6",
"E. c #B59AAA",
"W. c #A798B7",
"Q. c #B18DA3",
"!. c #B4A5BB",
"~. c #AEADB0",
"^. c #C59C89",
"/. c #C5A598",
"(. c #D3AE94",
"). c #E0B49F",
"_. c #E38ABB",
"`. c #C4A8A8",
"'. c #C7B8B9",
"]. c #D7BEB6",
"[. c #CFADAE",
"{. c #E1BBA7",
"}. c #B0CEB4",
"|. c #DBC3B9",
" X c #F6D6B7",
".X c #F6CBB4",
"XX c #928DC2",
"oX c #9890C2",
"OX c #A39CC9",
"+X c #90B7D0",
"@X c #B7AAC6",
"#X c #B6ABCE",
"$X c #9A87FD",
"%X c #8E80E8",
"&X c #A786F7",
"*X c #8CABFD",
"=X c #E59ACB",
"-X c #C8B7C8",
";X c #D9BDC1",
":X c #C6BAD7",
">X c #C9AFC4",
",X c #ED90E3",
"<X c #CEBCEC",
"1X c #D193D5",
"2X c #83CCC4",
"3X c #83D6D5",
"4X c #90DAC8",
"5X c #A8EAC7",
"6X c #9BD3E9",
"7X c #BCDCEC",
"8X c #D7CBDB",
"9X c #D7C8CD",
"0X c #E4D4C8",
"qX c #FADACA",
"wX c #E8D5D3",
"eX c #F6E5DD",
"rX c #DED7F8",
"tX c #E3D9F0",
"yX c #EFDFE4",
"uX c #EDE7EF",
"iX c #E4E6F8",
"pX c #F8FAFB",
"aX c #F9ECEB",
"sX c None",
/* pixels */
"sXsXsXsXsXsXsXsXsXsXsXsXsXsXsXsXsXsXsXsXsXsXsXsXsXsXsXsXsXsXsXsXsXsXsXsXsXsXsXsXsXsXsXsXsXsXsXsX",
"sXsXsXsXsXsXsXsXsXsXsXsXsXsXsXsXsXsXsXsXsXsXsXsXsXsXsXsXsXsXsXsXsXsXsXsXsXpXyXsXsXsXsXiXiXsXsXsX",
"sXsXsXsXsXsXsXsXsXsXsXsXsXsXsXsXsXsXsXsXsXsXsXsXsXsXsXsXsXsXsXsXsXsXsXpXeX{.|.wXsXsXsXpXiXsXsX7X",
"sXsXsXsXsXsXsXsXsXsXsXsXsXsXsXsXsXsXsXsXsXsXsXsXsXsXsXsXsXsXsXsXsXsXsXaX X Xu X R.sXsXw `.sXrX8X",
"sXsXsXsXsXsXsXsXsXsXsXsXsXsXsXsXsXsXsXsXsXsXsXsXsXsXsXsXsXsXsXsXsXsXtXyX|.K.r & 7 sXsX8 (.uXtXsX",
"sXsXsXsXsXsXsXsXsXsXsXsXsXsXsXsXsXsXsXsXsXsXsXsXsXsXsXsXsXsXsXsXsXsXsXE.e > W.~.J.|.sXL..XeX8XsX",
"sXsXsXsXsXsXsXsXsXsXsXsXsXsXsXsXsXsXsXsXsXsXsXsXsXsXsXsXsXsXsXsXsXsXsXtX9X~.|.q u !.sXsXpXwX-XsX",
"sXsXsXsXsXsXsXsXsXsXsXsXsXsXsXsXsXsXsXsXsXsXsXsXsXsXsXsXsXsXsX$X$X&X&X<X{.u {.{.|.sXsX:X*XF.+XsX",
"sXsXsXsXsXsXsXsXsXsXsXsXsXsXsXsXsXsXsXsXsXsXsXsXsXsXsXsXsXsXp.u.r.K V <.I.6 P.qX|.|.$Xu._ $.G.sX",
"sXsXsXsXsXsXsXsXsXsXsXsXsXsXsXsXsXsXsXsXsXsXsXsXsXsXsXsXsXi.r.O.M ; S 0XiXQ.e J.G %XO.[ +.N.sXsX",
"sXsXsXsXsXsXsXsXsXsXsXsXsXsXsXsXsXsXsXsXsXsXsXsXsXsXsX$Xu.O.X.X.3 > Y.9X+X+X<   4 %.[ sXsXsXsXsX",
"sXsXsXsXsXsXsXsXsXsXsXsXsXsXsXsXsXsXsXsXsXsXsXsXsXsX$Xu._ E X.E ; - 3.8Xj.j.6   < sXsXsXsXsXsXsX",
"sXsXsXsXsXsXsXsXsXsXsXsXsXsXsXsXsXsXsXsXsXsXsXsXsXsXi...N W _ W c s L 8X!.[.9   . 7 sX&XsXsXsXsX",
"sXsXsXsXsXsXsXsXsXsXsXsXsXsXsXsXsXsXsXsXsXsXsXsXsX$Xr.Y p P ^ E ( g F -X@XP.q < . 8 Q.5.4.sXsXsX",
"sXsXsXsXsXsXsXsXsXsXsXsXsXsXsXsXsXsXsXsXsXsXsXsXsXi.E p U I ) Y c - D #X!.E.I.Q.<./.L.y t 6.sXsX",
"sXsXsXsXsXsXsXsXsXsXsXsXsXsXsXsXsXsXsXsXsXsXsXsXp.+.f sXsX! ) T > @ D #XW.@X`.).(.L.I._.y 6.sXsX",
"sXsXsXsXsXsXsXsXsXsXsXsXsXsXsXsXsXsXsXsXsXsXsXsX&.P sXsXsX/ Q R s @ C OXR.R.W.S XXsXsX,X8.7.6.sX",
"sXsXsXsXsXsXsXsXsXsXsXsXsXsXsXsXsXsXsXsXsXsXsXi.T f sXsXsX} Q R h @ V OXY.T.C J sXsXsXsX9.7.8.sX",
"sXsXsXsXsXsXsXsXsXsXsXsXsXsXsXsXsXsXsXsXsXsXp.] P sXsXsXsX} Q R Y - 4 oXXXV H b.sXsXsXsXg.7.8.sX",
"sXsXsXsXsXsXsXsXsXsXsXsXsXsXsXsXsXsXsXsXsX$XO.I sXsXsXsXsXsX! R T d > L 7 J -.sXsXsXsXsXsX8.sXsX",
"sXsXsXsXsXsXsXsXsXsXsXsXsXsXsXsXsXsXsXsXsX&.~ sXsXsXsXsXsXsX/ R T Y s z W -.sXsXsXsXsXsXsXsXsXsX",
"sXsXsXsXsXsXsXsXsXsXsXsXsXsXsXsXsXsXsX-.| ~ sXsXsXsXsXsXsXsX} ! R T v 8 | sXsXsXsXsXsXsXsXsXsXsX",
"sXsXsXsXsXsXsXsXsXsXsXsXsXsXsXsXsXF.o.E P sXsXsXsXsXsXsXsXsXsX^ E R M ' %.sXsXsXsXsXsXsXsXsXsXsX",
"sXsXsXsXsXsXsXsXsXsXsXsXsXsXsXV.h.M.v.~ I sXsXsXsXsXsXsXsXsXsX( ( ~ { ( -.sXsXsXsXsXsXsXsXsXsXsX",
"sXsXsXsXsXsXsXsXsXsXsXsXsXsXH.A w T.S.@.sXsXsXsXsXsXsXsXsXsXsX( ( | @.} -.sXsXsXsXsXsXsXsXsXsXsX",
"sXsXsXsXsXsXsXsXsXsXsXsXsXsX6XU.U.G D.sXsXsXsXsXsXsXsXsXsXsXsXsX`  .#.{ %.sXsXsXsXsXsXsXsXsXsXsX",
"sXsXsXsXsXsXsXsXsXsXsXsXsXsX-X}.0 B sXsXsXsXsXsXsXsXsXsXsXsXsXsXX.| #.@.o.sXsXsXsXsXsXsXsXsXsXsX",
"sXsXsXsXsXsXsXsXsXsXsXsXpXpX'.~.+XsXsXsXsXsXsXsXsXsXsXsXsXsXsXsXsX| #.#.o.p.sXsXsXsXsXsXsXsXsXsX",
"sXsXsXsXsXsXsXsXsXsXsX-XI.0X|.P.sXsXsXsXsXsXsXsXsXsXsXsXsXsXsXsXsXo.z.c.$.a.sXsXsXsXsXsXsXsXsXsX",
"sXsXsXsXsXsXsXsXsXsXsX`.i  X/.[.sXsXsXsXsXsXsXsXsXsXsXsXsXsXsXsXsXt.x.n.k.u.sXsXsXsXsXsXsXsXsXsX",
"sXsXsXsXsXsXsXsXsXK v v w.E.P.9XsXsXsXsXsXsXsXsXsXsXsXsXsXsXsXsXsXsX=.m.c.x.s.sXsXsXsXsXsXsXsXsX",
"sXsXsXsXsXsXsXsXsX^.U.< $ c r [.sXsXsXsXsXsXsXsXsXsXsXsXsXsXsXsXsXsX*.m.m.x.a.sXsXsXsXsXsXsXsXsX",
"sXsXsXsXsXsXsXsXsX X=X>.4 + v '.sXsXsXsXsXsXsXsXsXsXsXsXsXsXsXsXsXsXt.N.S.n.a.sXsXsXsXsXsXsXsXsX",
"sXsXsXsXsXsXsXsXsX1Xd.>.5 1 N sXsXsXsXsXsXsXsXsXsXsXsXsXsXsXsXsXsXsXsXB.S.n.y.sXsXsXsXsXsXsXsXsX",
"sXsXsXsXsXsXsXsXsXq.0.;.m sXY sXsXsXsXsXsXsXsXsXsXsXsXsXsXsXsXsXsXsXsXB.F.sXsXsXsXsXsXsXsXsXsXsX",
"sXsXsXsXsXsXsXsXf.0.:.>.sXsXsXsXsXsXsXsXsXsXsXsXsXsXsXsXsXsXsXsXsXsXG.C.F.sXsXsXsXsXsXsXsXsXsXsX",
"sXsXsXsXsXsXsXf.q.:.:.sXsXsXsXsXsXsXsXsXsXsXsXsXsXsXsXsXsXsXsXsXsXsXZ.F.sXsXsXsXsXsXsXsXsXsXsXsX",
"sXsXsXsXsXsX# ;.0.;.sXsXsXsXsXsXsXsXsXsXsXsXsXsXsXsXsXsXsXsXsXsXC.3XC.sXsXsXsXsXsXsXsXsXsXsXsXsX",
"sXsXsXsXsX# + O 1 sXsXsXsXsXsXsXsXsXsXsXsXsXsXsXsXsXsXsXsXsXsX3X3XC.sXsXsXsXsXsXsXsXsXsXsXsXsXsX",
"sXsXsXsXsX# +   sXsXsXsXsXsXsXsXsXsXsXsXsXsXsXsXsXsXsXsXsX3X3X3XA.sXsXsXsXsXsXsXsXsXsXsXsXsXsXsX",
"sXsXsXsX# , O o sXsXsXsXsXsXsXsXsXsXsXsXsXsXsXsXsXsXsXsX2X3X2XsXsXsXsXsXsXsXsXsXsXsXsXsXsXsXsXsX",
"sXsXsX2 * + o sXsXsXsXsXsXsXsXsXsXsXsXsXsXsXsXsXsXsXsXsX2XsXsXsXsXsXsXsXsXsXsXsXsXsXsXsXsXsXsXsX",
"sXsX3 : * + $ sXsXsXsXsXsXsXsXsXsXsXsXsXsXsXsXsXsXsXsXsXsXsXsXsXsXsXsXsXsXsXsXsXsXsXsXsXsXsXsXsX",
"sXm 3 3 * $ sXsXsXsXsXsXsXsXsXsXsXsXsXsXsXsXsXsXsXsXsXsXsXsX4X5XsXsXsXsXsXsXsXsXsXsXsXsXsXsXsXsX",
"sXv x 3 * = sXsXsXsXsXsXsXsXsXsXsXsXsXsXsXsXsXsXsXsXsXsXsXsXsXsXsXsXsXsXsXsXsXsXsXsXsXsXsXsXsXsX",
"Z n m l = j sXsXsXsXsXsXsXsXsXsXsXsXsXsXsXsXsXsXsXsXsXsXsXsXsXsXsXsXsXsXsXsXsXsXsXsXsXsXsXsXsXsX",
"Z n v b a c sXsXsXsXsXsXsXsXsXsXsXsXsXsXsXsXsXsXsXsXsXsXsXsXsXsXsXsXsXsXsXsXsXsXsXsXsXsXsXsXsXsX",
"sXsXv b j sXsXsXsXsXsXsXsXsXsXsXsXsXsXsXsXsXsXsXsXsXsXsXsXsXsXsXsXsXsXsXsXsXsXsXsXsXsXsXsXsXsXsX"
};
