/* XPM */
static char *_889_782533b0d5243d062f43c7f5eb9d7e96db36506ceac8db34f91040e5c2efc145[] = {
/* columns rows colors chars-per-pixel */
"48 48 252 2 ",
"   c #010101",
".  c #08080A",
"X  c #14140E",
"o  c #1B1918",
"O  c #0B0E16",
"+  c #201B17",
"@  c #151A25",
"#  c #040C2A",
"$  c #28132B",
"%  c #1D2A2F",
"&  c #35332A",
"*  c #312C2D",
"=  c #25281D",
"-  c #433839",
";  c #4A4736",
":  c #182756",
">  c #1F2943",
",  c #29365A",
"<  c #2B354D",
"1  c #162767",
"2  c #1D3469",
"3  c #1A3378",
"4  c #162776",
"5  c #273866",
"6  c #2B3B71",
"7  c #121C50",
"8  c #4B364A",
"9  c #6A2A76",
"0  c #374450",
"q  c #354569",
"w  c #394877",
"e  c #2A4374",
"r  c #544D4E",
"t  c #666354",
"y  c #475376",
"u  c #4C5069",
"i  c #675274",
"p  c #506970",
"a  c #757873",
"s  c #707070",
"d  c #8B2D7B",
"f  c #875474",
"g  c #937E73",
"h  c #74807E",
"j  c #9D8D7B",
"k  c #162B83",
"l  c #14318D",
"z  c #193DAF",
"x  c #1D2C98",
"c  c #771D92",
"v  c #6B308A",
"b  c #5F378F",
"n  c #1B5799",
"m  c #184F8D",
"M  c #354B88",
"N  c #284A99",
"B  c #385499",
"V  c #334F92",
"C  c #1B6395",
"Z  c #336D92",
"A  c #1A45AA",
"S  c #275AA5",
"D  c #3859A7",
"F  c #2C50B2",
"G  c #2A62AA",
"H  c #2F6CAE",
"J  c #1E68A0",
"K  c #4B588C",
"L  c #734C86",
"P  c #556B90",
"I  c #70718D",
"U  c #435CA7",
"Y  c #4C59B0",
"T  c #674CA9",
"R  c #4A64AB",
"E  c #5369A5",
"W  c #536CB1",
"Q  c #657BBA",
"!  c #6979AC",
"~  c #0B2EC8",
"^  c #0E38E5",
"/  c #5D3EC7",
"(  c #1B42D3",
")  c #2951CE",
"_  c #346BCB",
"`  c #376EED",
"'  c #325BF1",
"]  c #5076CA",
"[  c #6F70CD",
"{  c #4A76FD",
"}  c #5878FE",
"|  c #4A72F1",
" . c #6D75FB",
".. c #5E58DC",
"X. c #893391",
"o. c #861AAD",
"O. c #9B23B5",
"+. c #8D4E94",
"@. c #89718E",
"#. c #BB56B6",
"$. c #9D6EA7",
"%. c #A96C93",
"&. c #D567B3",
"*. c #B42CCC",
"=. c #BA30F1",
"-. c #AC16D4",
";. c #D038D8",
":. c #C628F7",
">. c #D330F7",
",. c #E432FC",
"<. c #CD1DED",
"1. c #8C5AF4",
"2. c #B850F1",
"3. c #876CF8",
"4. c #B969F6",
"5. c #AA70F8",
"6. c #AD68C1",
"7. c #CC52CD",
"8. c #EB56DA",
"9. c #D171D0",
"0. c #D856F7",
"q. c #CF4CF0",
"w. c #E559F9",
"e. c #EB51F8",
"r. c #D966F5",
"t. c #D171F3",
"y. c #E669F9",
"u. c #F868FD",
"i. c #E876F9",
"p. c #F777FD",
"a. c #EA76EC",
"s. c #EF61D6",
"d. c #3B849B",
"f. c #3D8DA6",
"g. c #46909C",
"h. c #73888F",
"j. c #4487AB",
"k. c #718CB0",
"l. c #71B1B0",
"z. c #3A8BD0",
"x. c #3D88E2",
"c. c #4790D7",
"v. c #7C98D2",
"b. c #7491C7",
"n. c #59B3D3",
"m. c #4886F9",
"M. c #4C97F9",
"N. c #5897F9",
"B. c #4E8FF0",
"V. c #6A8BF8",
"C. c #6596F9",
"Z. c #778DFA",
"A. c #4CA7F7",
"S. c #55A6FA",
"D. c #5AB8FB",
"F. c #52B1EA",
"G. c #65B8E2",
"H. c #7CA8F7",
"J. c #7AB8FA",
"K. c #68AFF4",
"L. c #6CC8DB",
"P. c #5CC4FE",
"I. c #67C7FC",
"U. c #78C9FA",
"Y. c #6BD7FB",
"T. c #76D7F9",
"R. c #72C6EB",
"E. c #6AE7FD",
"W. c #7BE5FB",
"Q. c #78EDF6",
"!. c #908E91",
"~. c #B2998E",
"^. c #9294AA",
"/. c #AE8EB3",
"(. c #8CA5AD",
"). c #B5B6B8",
"_. c #A8ABB1",
"`. c #F8AEB2",
"'. c #CF9D93",
"]. c #C4C1BB",
"[. c #F3D5B4",
"{. c #819DD8",
"}. c #829DCB",
"|. c #92ABD1",
" X c #AEB5CB",
".X c #8F8DF5",
"XX c #B193F6",
"oX c #91B2F4",
"OX c #B5BBFC",
"+X c #ACB1F4",
"@X c #B29BCB",
"#X c #F396D8",
"$X c #D4B0D2",
"%X c #F7B3CD",
"&X c #EA87F8",
"*X c #F98BFD",
"=X c #E694F7",
"-X c #F698FB",
";X c #FE8DE4",
":X c #D8BAFD",
">X c #C7ACF3",
",X c #F5AAFD",
"<X c #F5BBFA",
"1X c #EFB0F1",
"2X c #D596EE",
"3X c #B1C7D2",
"4X c #93C5FB",
"5X c #88DBFA",
"6X c #98D9FC",
"7X c #88C6F8",
"8X c #B6C8F7",
"9X c #A9D5F7",
"0X c #B7D6F8",
"qX c #AAC9F7",
"wX c #87E9FA",
"eX c #8CF3FB",
"rX c #8DFBFB",
"tX c #86F6FA",
"yX c #94FCFB",
"uX c #9AFBFB",
"iX c #96F6FA",
"pX c #98E5F7",
"aX c #A7E7FA",
"sX c #B7E5FB",
"dX c #ACFEFB",
"fX c #A5F7FC",
"gX c #B5FAFD",
"hX c #B0E7EB",
"jX c #8EDBD6",
"kX c #CCD2D4",
"lX c #FBD2C5",
"zX c #D8C9FD",
"xX c #C9D9F7",
"cX c #D8D7F9",
"vX c #CACFEE",
"bX c #E9CCF7",
"nX c #F8C7FB",
"mX c #E7D9FA",
"MX c #F8D5FD",
"NX c #F6CAE7",
"BX c #C9E7FA",
"VX c #D9E8F8",
"CX c #CCFDFF",
"ZX c #C7F7FD",
"AX c #D7F9FC",
"SX c #D8E6EB",
"DX c #E6ECEB",
"FX c #E6E8F9",
"GX c #FCE5FC",
"HX c #E7F7FD",
"JX c #FBFEFE",
"KX c None",
/* pixels */
"KXKXKXKXKXKXKXKXKXKXKXKXKXKXKXKXKXKXKXKXKXKXKXKXKXKXKXKXKXKXKXKXKXKXKXKXKXKXKXKXKXKXKXKXKXKXKXKX",
"KXKXKXKXKXKXKXKXKXKXKXKXKX  KXKXKXKXKXKXKXKXKXo s - . KXKXKXKXKXKXKXKXKXKXKXKXKXKXKXKXKXKXKXKXKX",
"KXKXKXKXKXKXKXKXKXKXKXKX  _.0 KXKXKXKXKXKXo g kXZXZX].p % . KXKXKXKXKXKXKXKXKXKXKXKXKXKXKXKXKXKX",
"KXKXKXKXKXKXKXKXKXKXKX  !.JXhX& KXKXKX+ s kXZXaX5XsXJXAXrXl.p %   KXKXKXKX  $ * * * 8 - . KXKXKX",
"KXKXKXKXKXKXKXKXKXKXKXt JXDXCXl.  + s kXAXZXgXgXdXAXJXAXAXAXCXiXl.p %     r 1X1XnX<X%XlX& KXKXKX",
"KXKXKXKXKXKXKXKXKXKX+ DXJXHXiXhX!.kXJXCXdXfXuXrXrXJXZXtXQ.dXAXAXHXCXhXl.* 9.GXnXnXlX[.[.% KXKXKX",
"KXKXKXKXKXKXKXKXKXKXt AXwXwXhXCXCXdXyXyXrXrXiXtXCXAXtXyXeXT.eXaXxXmXJX XO.w.GXnX%X%X%X~.. KXKXKX",
"KXKXKXKXKXKXKXKXKX  !.iXY.tXgXgX5XR.T.5XeXuXrXdXZXrXeXgXuXwX5XgX0XxX3Xv :.0.GX-X-X&X;Xj KXKXKXKX",
"KXKXKXKXKXKXKXKXKXX 3XT.tXdXZXI.S.M.M.N.N.K.J.aXuXyXyXyXfXuX6X0XAXHXi *.:.t.1Xi.a.y.#Xr KXKXKXKX",
"KXKXKXKXKXKXKXKXKXr aXeXuXBXS.D.S.M.S.S.M.M.m.m.C.J.5XyXuXfXaX8XAX^.*.>.:.=Xa.y.y.*X$XX KXKXKXKX",
"KXKXKXKXKXKXKXKXKXh gXtXdXH.` S.c.) F ] N.S.S.A.B.B.| V.J.pXgX0XxX^.o.>.>.i.y.i.=X,Xf KXKXKXKXKX",
"KXKXKXKXKXKXKXKX. 3XgXyX5X{ N.] k A A 3 6 F B.S.P.P.S.{ { V..X8X8XVX_.c :.u.i.i.i.u.$ KXKXKXKXKX",
"KXKXKXKXKXKXKXKX& CXuXuXC.m.M.( ~ l n _ H : 1 z ` c.A.N.{ }  .3.XX8XmXkX+.*.w.u.u.#.g o KXKXKXKX",
"KXKXKXKXKXKXKXKXs CXuXU.{ S.] ~ ^ ( A l C z.H , 4 ) c.c.| | }  ..X+XOXmXDX_.@.+.#.f HX_.. KXKXKX",
"KXKXKXKXKX  &    XZXaX.XC.C.) ^ ^ ^ ^ ^ ~ l J S 4 7 Z n.n.f.B Y V.oX+X8XcXFXFXvX^._.BXHX_.X KXKX",
"KXKXKXKXKXX $Xi 3XAXOX3.H.| 4 k 3 3 l 4 1 4 7 : 2 2 : 2 5 e 3 k A K.J..X8XxXcXcXVXAXHXJXJX!.  KX",
"KXKXKXKXKX; NXa.L VXXX.XoXY 3 e w M M M M B B M B D S N D D N D k D C.C.oX4X0XxXZXBXBX6X5XkX+ KX",
"KXKXKXKX  j %X,X*.L XXXX.XN N S G F S S G G n H G S n S G n m n n m | S.N.J.5X6X6X5XW.wXeXAX& KX",
"KXKXKXKX= `.1X<X&XO.I >X[ J J J J G C C C m m C m Z Z d.f.d.g.g.f.f.F m.m.m.U.Y.5XyXyXyXeXCXr KX",
"KXKXKXKXt %X,XnX<Xw.o.! Y l l z A z A A ) G z.c.G.L.pXdXdXfXeXY.E.E._ _ M.{ N.Y.Y.T.eXwXQ.ZXt KX",
"KXKXKX  j #X<XnXnX=Xq.v N ' ' ` ` m.A.D.P.Y.Q.E.yX5Xn.G.R.G.F.Q.W.Y.x.N m.m.{ J.I.Y.U.W.Y.gXs KX",
"KXKXKX* [.#XnXMXnX1Xq.c U } c.B.A.A.P.I.U.7X4X5XfXpXG.F.F.c.G.wXrXE.A.z _ m.` V.U.I.I.I.Y.fXa KX",
"KXKXKXX '.%X<X=Xr.r.=./ E V.B.A.A.A.I.oXqX5.4.+XG.c.n.9XgXdXR.c.n.E.F.) A ` { } oXD.I.D.D.iXa KX",
"KXKXKXKX; &.t.t.0.0.:.-.T Z.C.B.A.K.oX+X+X=.-Xr.4XeX5X7XG.7XfXdXW.Q.A.z 4 D 3. .XXoXI.P.A.6Xs KX",
"KXKXKXKX. %.8.t.r.r.q.-.b  .V.A.D.K.oXXXt.i.*Xy.XXfXeXQ.tXT.G.H.yXL.K 6.L k [ 1.1.>XoXY.D.U.t KX",
"KXKX  KXKX& 8.q.r.r.w.<.b 3.V.F.N.S.4X5.q.i.2.XXBXgXwXW.rXyXrXR.K +.$X,X#.k x 5.1.XXqXD.Y.U.0 KX",
"KXo ~.g r = v q.r.y.w.<.b 3.V.C.S.S.J.+X1.4.xXCXsX6XpXyXrXQ.n.I 7.*X<X=X9.i x T 5.1.vX7XP.T.% KX",
"KX& %XGXGXMX/.X.u.i.y.<.v  . .C.M.S.U.sXBXZXCX0X9XiXyXyXQ.P $.a.*XnX1X,X8.%.e u T / .X0XD.L.O KX",
"KX; `.a.nXMX-XX.7.i.y.,.9 1. .N.D.Y.5XaXhXaX6XpXuXiXyXQ.p 9.*X-XnXnX<X<Xr.&.j AXkX_.K ].wXj.  KX",
"KXt `.a.,XGXq.=.X.p.y.,.c ..V.I.Y.T.T.eXwXT.eXyXrXyXtXE.I &X1XnXMXnXnXMXy.s.j _.HXHXDX!.3Xy KXKX",
"KX; [.%Xi.=Xi.,.X.7.*X,.9 $.4XT.U.Y.T.I.T.eXyXeXyXtXY.uXg.*.=XMXnXnXnXnXy.;.'.!.0X0XxXDX!.& KXKX",
"KXKX* '.;Xy.&X,.e.X.#.L ^.zX8X6X5XU.D.Y.wXtXeXiXtXY.rXfXl.O.i.&Xr.i.i.i.:.7.~.!.0X0X0XVX_.  KXKX",
"KXKXKXX f ;X*Xu.;.9 !.bXMXzXxX6XI.K.T.T.W.wXrXW.T.eXiXfXjXX.i.i.y.y.y.q.*.~.h hXxXxX0XvX~.  KXKX",
"KXKXKXKX  8 9.+.@.NXMXnXbXcX9XU.5X6X5XT.T.6X6X7XfXaXsXZX(.9 y.i.y.i.r.;.&.h 0XxXBXBX Xu @ KXKXKX",
"KXKXKXKXKX  s $XGXbXbXmXcX6X6XsXaXpX6X6XqXOX5.4.4.q.XX3Xh.I ;.p.a.p.w.7.g  XBX0X0XBX^.2 # KXKXKX",
"KXKXKXKXKX. kXFXcXFXFXVXsXBXAXBXsX0X0X8X>X4.=X=Xu.q.2XI vX^.;.p.i.u.8.f @X:X+XoX0XFXI e . KXKXKX",
"KXKXKXKXKX  ].VXqX XDXVXDXVXVXVXVXBXcXzXXXq.-X-Xy.t.^._.FX X+.p.p.u.X.6.>XXX+XvXVXkXy 5 KXKXKXKX",
"KXKXKXKXKXKXr ^.w > ].DXBXSXSXDXSXVXvX:X:Xq.e.,.r.+X@.FXcXzX+.+.+.+.$.:XzXcXFXxXSX@.V > KXKXKXKX",
"KXKXKXKXKXKXKX# l K I SX0X9X9X3XDXSXmXmXbX=.:.t.zX!. XHXSXFXmXkX$XvXMXFX X8Xk. X_.u W # KXKXKXKX",
"KXKXKXKXKXKXKX@ U ] W s ). Xk.q ).HXxXcXcXt.>XcX+X!.FXSXFXVXxXFXHXFXFX X> w w u K Q %   KXKXKXKX",
"KXKXKXKXKXKXKX. M Q v.E w w , 6 u ).vX0X8XxXSXBX(.).HXAXBXk.k.SXSXxX|.5 U W v.v.! o KXKXKXKXKXKX",
"KXKXKXKXKXKXKXKX. E {.{.v.E !.kX6 w p y |.BX9XgX! l.oXk.q 7 u 4XoX{.q M b.v.v.u . KXKXKXKXKXKXKX",
"KXKXKXKXKXKXKXKXKXO , P k.v.I i K Q R D q |.k.w , 5 w 5 3 D M K P q V Q v.b.<   KXKXKXKXKXKXKXKX",
"KXKXKXKXKXKXKXKXKXKXKX  @ 0 K E {.oX{.v.K 5 : 4 B R U W U R D B E W k.{.E @ KXKXKXKXKXKXKXKXKXKX",
"KXKXKXKXKXKXKXKXKXKXKXKXKXKX  % 0 P }.|.oXW D R B W [ Q Y D D b.|.{.v.y . KXKXKXKXKXKXKXKXKXKXKX",
"KXKXKXKXKXKXKXKXKXKXKXKXKXKXKXKXKX  o < P E V 5 . @ < e K D Y v.{.k.<   KXKXKXKXKXKXKXKXKXKXKXKX",
"KXKXKXKXKXKXKXKXKXKXKXKXKXKXKXKXKXKXKXKXKXO .   KXKXKXKXO @ > < @   KXKXKXKXKXKXKXKXKXKXKXKXKXKX",
"KXKXKXKXKXKXKXKXKXKXKXKXKXKXKXKXKXKXKXKXKXKXKXKXKXKXKXKXKXKXKXKXKXKXKXKXKXKXKXKXKXKXKXKXKXKXKXKX"
};
