/* XPM */
static char *_8801_89045b3725f4d8aa5d773ba97b4e0480c30fbc1a4d793277a1454a76fdf92455[] = {
/* columns rows colors chars-per-pixel */
"48 48 243 2 ",
"   c #39151B",
".  c #291C1D",
"X  c #361924",
"o  c #392B2D",
"O  c #4A1B1B",
"+  c #570E12",
"@  c #6C0C16",
"#  c #68131C",
"$  c #730C19",
"%  c #6A251A",
"&  c #792212",
"*  c #441E24",
"=  c #631622",
"-  c #781923",
";  c #492828",
":  c #5B2A2B",
">  c #592627",
",  c #592D31",
"<  c #4E3639",
"1  c #543333",
"2  c #5A3838",
"3  c #51302F",
"4  c #692A27",
"5  c #7A272A",
"6  c #7A3529",
"7  c #662D34",
"8  c #772C34",
"9  c #653434",
"0  c #6A3C3C",
"q  c #64393A",
"w  c #763936",
"e  c #6C322D",
"r  c #50211F",
"t  c #5E4037",
"y  c #7C4339",
"u  c #606226",
"i  c #6B3B42",
"p  c #773942",
"a  c #533B43",
"s  c #57474A",
"d  c #4E4B55",
"f  c #784649",
"g  c #6D4A51",
"h  c #6F5667",
"j  c #882A16",
"k  c #9A361A",
"l  c #933218",
"z  c #A73816",
"x  c #AB3111",
"c  c #851D29",
"v  c #9C1429",
"b  c #83252A",
"n  c #853928",
"m  c #872A35",
"M  c #893535",
"N  c #97302D",
"B  c #A63B24",
"V  c #B83A22",
"C  c #841D1D",
"Z  c #C83918",
"A  c #D13C14",
"S  c #D12F31",
"D  c #A7401E",
"F  c #8A4137",
"G  c #974938",
"H  c #94432C",
"J  c #A84427",
"K  c #BB472A",
"L  c #A84C34",
"P  c #B24F34",
"I  c #CA451C",
"U  c #D9451A",
"Y  c #DA5519",
"T  c #E64619",
"R  c #ED521C",
"E  c #D94924",
"W  c #CB5329",
"Q  c #DA562A",
"!  c #C65636",
"~  c #D85834",
"^  c #C74930",
"/  c #E34C24",
"(  c #EA4E23",
")  c #EA5424",
"_  c #E55929",
"`  c #F75A24",
"'  c #F2552B",
"]  c #D7622D",
"[  c #E8652A",
"{  c #FD622A",
"}  c #FE6C2B",
"|  c #F76725",
" . c #FB762D",
".. c #E66335",
"X. c #FB6D32",
"o. c #FA6837",
"O. c #EB733A",
"+. c #FC7433",
"@. c #FD7C34",
"#. c #F77538",
"$. c #EA621E",
"%. c #833443",
"&. c #B62D47",
"*. c #D63B56",
"=. c #CF394F",
"-. c #854747",
";. c #895655",
":. c #995A57",
">. c #924D51",
",. c #AE514F",
"<. c #B76448",
"1. c #B6695A",
"2. c #9B6763",
"3. c #927B75",
"4. c #A57772",
"5. c #AB6D70",
"6. c #856059",
"7. c #C45B46",
"8. c #CC4753",
"9. c #CB595A",
"0. c #D24754",
"q. c #C46A4C",
"w. c #CD6948",
"e. c #DB6B45",
"r. c #D5744A",
"t. c #C87856",
"y. c #D57855",
"u. c #CC6F55",
"i. c #F77443",
"p. c #E57957",
"a. c #EF714B",
"s. c #CD786D",
"d. c #E04C5A",
"f. c #64896B",
"g. c #FA813B",
"h. c #B0895A",
"j. c #908D73",
"k. c #B68F60",
"l. c #BA9465",
"z. c #BC9769",
"x. c #BD9A6C",
"c. c #BA9465",
"v. c #B79B77",
"b. c #DD8258",
"n. c #F6874C",
"m. c #E7875B",
"M. c #F28958",
"N. c #ED915D",
"B. c #FA975D",
"V. c #ED8F49",
"C. c #DB8764",
"Z. c #C49C6C",
"A. c #C49A68",
"S. c #C49A75",
"D. c #D79375",
"F. c #E28561",
"G. c #E98B66",
"H. c #EC9361",
"J. c #E99469",
"K. c #F49569",
"L. c #E89A78",
"P. c #F69572",
"I. c #F68F6B",
"U. c #CBA26E",
"Y. c #CDA673",
"T. c #C7A677",
"R. c #D2AA76",
"E. c #D7B17B",
"W. c #F4A379",
"Q. c #F8A570",
"!. c #0F31B1",
"~. c #2F48A3",
"^. c #795490",
"/. c #777DB4",
"(. c #536AB6",
"). c #0D3AD6",
"_. c #2C4AD1",
"`. c #2D52D1",
"'. c #3F62C3",
"]. c #1648F5",
"[. c #2655E8",
"{. c #2456F7",
"}. c #2F56ED",
"|. c #2B63FB",
" X c #2A67FB",
".X c #346BFD",
"XX c #3866F8",
"oX c #3365EB",
"OX c #1F45C5",
"+X c #5772D6",
"@X c #6473D2",
"#X c #587BEB",
"$X c #4E78F4",
"%X c #557BFC",
"&X c #577AF6",
"*X c #4471ED",
"=X c #4858DB",
"-X c #8574A5",
";X c #5988FB",
":X c #5B87F0",
">X c #6389FD",
",X c #6286FA",
"<X c #6C8EEA",
"1X c #698AD3",
"2X c #BA8884",
"3X c #B3968B",
"4X c #BFAE8C",
"5X c #8E88AD",
"6X c #AAB9A2",
"7X c #CF958B",
"8X c #E5978A",
"9X c #D6B69B",
"0X c #CCAF96",
"qX c #EBAF92",
"wX c #CBB4A4",
"eX c #D3B9A8",
"rX c #D6B9B6",
"tX c #E4B2A5",
"yX c #B6C1B1",
"uX c #DCC295",
"iX c #E4C696",
"pX c #F1C996",
"aX c #D6C5A9",
"sX c #DAC8B9",
"dX c #DCD1BC",
"fX c #E6C7A5",
"gX c #E7C7B3",
"hX c #E9D8B9",
"jX c #F1D9B2",
"kX c #EFE2BD",
"lX c #8B96CC",
"zX c #A4BEEB",
"xX c #93ABE0",
"cX c #AEC6EE",
"vX c #D9CFC8",
"bX c #F3DEC7",
"nX c #EEE2C6",
"mX c #F9EBD7",
"MX c #F1EAD2",
"NX c #FEFAE8",
"BX c #FEFFFE",
"VX c #FFFFF3",
"CX c None",
/* pixels */
"CXCXCXCXCXCXCXCXCXCXCXCXCXCXCXCXCXCXL CXCXCXCXCXCXCXCXCXCXCXCXCXCXCXCXCXCXCXCXCXCXCXCXCXCXCXCXCX",
"CXCXCXCXCXCXCXCXCXCXCXCXCXCXCXCXCXG L ,.L CXCXCXCXCXCXCXCXCXCXCXCXCXCXCXCXCXCXCXCXCXCXCXCXCXCXCX",
"CXCXCXCXCXCXCXCXCXCXCXCXg CXCXCXCXG G G H k CXCXCXCXCXCXCXCXCXCXCXCXCXCXCXCXCXCXCXCXCXCXCXCXCXCX",
"CXCXCXCXCXCXCXCXCXCXCX2 , 2 t f CXF H G L G F G G CXCXCXCXCXCXCXCXCXCXCXCXCXCXCXCXCXCXCXCXCXCXCX",
"CXCXCXCXCXCXCXCXCXCXs < 2 2 2 t f y H L n 6 F H n CXCXCXCXCXCXCXCXCXCXCXCXCXCXCXCXCXCXCXCXCXCXCX",
"CXCXCXCXCXCXCXCXCXCXa 3 ; 1 t q t CX6 e 4 w y e w y CXCXCXCXCXCXCXCXCXCXCXCXCXCXCXCXCXCXCXCXCXCX",
"CXCXCXCXCXCXCXCXCXCXCXCXCXU E ~ ..L t 2 t q 2 2 2 q w CXCXCXCXCXCXCXCXCXCXCXCXCXCXCXCXCXCXCXCXCX",
"CXCXCXCXCXCXCXCXCXCXCXCX~ L.qXi.P 3 3 3 3 3 1 2 < y F CXCXCXCXCXCXCXCXCX[ Q | CXCXCXCXCXCXCXCXCX",
"CXCXCXCXCXCXCX_ K W O. .qXVXVXL.B 6.j.3.3.h 9 1 ; 7.a...X.g.@.[ W z z l k I ' E CXCXCXCXCXCXCXCX",
"CXCXCXCXCXCXCXCXQ J j <.NXNXVXK.e.mXBXBXBXBXsXP H _ } X.+._ z & % % 6 z Q ..CXCXCXCXCXCXCXCXCXCX",
"CXCXCXCXCXCXCXCXCX..z 2XVXyXyXg.P.f.6XBXBXBXBXp.} { ` { Y j % 6 n J W [ ..CXCXCXCXCXCXCXCXCXCXCX",
"CXCXCXCXg h CXCXCXCXQ 8XVXf.u g.m.4XaXmXmXbXgXe.{ ` ` ` T D J K Q .._ CXCXCXCXCXCXCXCXCXCXCXCXCX",
"CXCXCXd s s s s CXCX[ r.Q.V. .| $. .#.[ | ` ) | ' ' ( ) ) ) ) ) _ CXCXCXCXCXCXCXCXCXCXCXCXCXCXCX",
"CXCXCXCX< o o . ; <.n.#.| } } | } | | X.o.i.i.a.i.a.../ / E E CXCXCXCXCXCXCXCXCXCXCXCXCXCXCXCXCX",
"CXCXCXCXCX. . o y t.J.K.K.P.K.I.P.P.P.P.P.P.8XD.u.u.J.p./ / E ~ CXCXCXCXCXCXCXCXCXCXCXCXCXCXCXCX",
"CXCXCXCXCXCXCXCXCXw.t.y.m.b.F.F.b.b.J.L.qXqX8X,.&.8.p.I._ U / _ a.CXCXCXCXCXCXCXCXCXCXCXCXCXCXCX",
"CXCXCXCXCXCXCX#.i.i.e.q.C.C.D.D.qXtXgXtX2Xd.*.*.*.*.8.F.Q E ( ( ` #.i.CXCXCXCXCXCXCXCXCXCXCXCXCX",
"CXCXCXCXCXO.X.{ ' ' o.a.D.D.7XwX4.5.d.S S =.=.=.*.*.8.e.A T ' ` +.} X.O.CXCXCXCXCXCXCXCXCXCXCXCX",
"CXCXCXCXCX} Y I S I E A y.v s.7X+ # M 9.d.0.*.*.*.8.w.W A T ` X.@.@. .@.#.CXCXCXCXCXCXCXCXCXCXCX",
"CXCXCXCX{ Y D CXCXCXCXCXs.u.S.hX9XrXgXgX8Xp.9.w.,.u.w.Z A T ` { X.+.@.@.@.i.CXCXCXCXCXCXCXCXCXCX",
"CXCX8 ^ I x CXCXCXCXCXCXCXL.F.W.qXqX8XK.m.q.<.<.u.y.W A A Z T ( ` { +.@.g.@.i.CXCXCXCXCXCXCXCXCX",
"CXCXw B x 5 CXCXCXCXCXCXCXCXb.t.r.r.q.<.f f 4 4 -.:.V Z Z x x S / ( ` +.@.@.n.CXCXCXCXCXCXCXCXCX",
"CXCX7 r O   CXCXCXCXCXCXCXCXCXC.N.b.<.q < q 4 4 , p ~ ..E V V CXCXT R ` } @.@.#.CXCXCXCXCXCXCXCX",
"CX-.w > X , CXCXCXCXCXCXCXCXCXCXK.Q.M.y 2 , 3 : 7 0 ~ X.#._ >.h g CXCX` { } @.g.i.CXCXCXCXCXCXCX",
"CXf 6 9 s ! / CXCXCXCXCXCXCXCXCXN.Q.C.> ; a , : 7 7 w ! +.} K g i i i ^ ~ ' X.@.n.O.CXCXCXCXCXCX",
"h q # 4 2 w...CXCXCXCXCXCXCXCXCXCXB.B.L 2 i 0 0 0 i 0 q F ! P 7 , 0 i P / ' }  . .O.CXCXCXCXCXCX",
", O ; > l ] O.CXCXCXCXCXCXCXCXCXCXH.B.m.e ; ; O   X     X * > > O : 0 B W Q Y $.$.CXCXCXCXCXCXCX",
"CXCXCXCXCXCXCXCXCXCXCXCXCXCXCXCXCXCXH.n.z & j J t.G b b 7 X * * *   CXCXCXCXCXCXCXCXCXCXCXCXCXCX",
"CXCXCXCXCXCXCXCXCXCXCXCXCXCXCXCXCXCXCXN.K.M.n.K.Q.p.U / ' CXCXCXCXCXCXCXCXCXCXCXCXCXCXCXCXCXCXCX",
"CXCXCXCXCXCXCXCXCXCXCXCXCXCXCXCXCXCXCXm.N.H.H.H.N.J.~ U / CXCXCXCXCXCXCXCXCXCXCXCXCXCXCXCXCXCXCX",
"CXCXCXCXCXCXCXCXCXCXCXCXCXCXCXCXCXCXCXCXC.N.N.N.N.J.p.U ~ CXCXCXCXCXCX9XtXkXCXCXCXCXCXCXCXCXCXCX",
"CXCXCXCXCXCXCXCXCXCXCXCXCXCXCXCXCXCXCXCXCXJ.m.m.N.N.K._ ( CXCXCXCXCX;.M n :.3XMXNXCXCXCXCXCXCXCX",
"CXCXCXCXCXCXCXCXCXCXCXCXCXCXCXCXCX_._._.CXp.I.K.M.M.P.s.^.CXCXCXCXCXm N N c - %.wXmXCXCXCXCXCXCX",
"CXCXCXCXCXCXCXCXCXCXCXCXCXCXCX:X&X&XXX}.{.=X-X-XrXlXoXXX|.oXCXCXCX>.m C m N M m c 2.gXNXCXCXCXCX",
"CXCXCXCXCXCXCXCXCXCXCXCXCXCX:X,X>X&X%X*X{.{.].zXcXcXzXXXXXXXoXCX#X+X@X^.%.c c M >.c m 3XmXCXCXCX",
"CXCXCXfXfXwX2.5 # 5 CXCXCXCX,X,X>X%X%X%X}.).].&X$X*XxXXX.X.X X.X#X%X%X;X#Xg 1.nXbX:.c - 2.dXNXCX",
"CXCXE.E.E.uXjX9XF $ b CXCX<X,X,X;X;X%X%X'.!.!.).[.{.|..X.X.X.X XXX$X;X;X;XlXaX0XwXMXeX5 $ w 4.3X",
"CXR.U.U.Z.Y.E.pXnX:.@ %.CX:X+X(./.1X$X%X,XCXCXCXCXOX`.|..X.X.X X{.XX;X;X>X<X4XaXaXsXwXsX3X- - CX",
"CXY.U.Y.R.R.Y.U.iXnX;.= 3X1X~.2XpXiX5X+X:XCXCXCXCXCXCX`.}..X.X.X.X X X;X<XCXv.4X3X3XwXvX2Xc m CX",
"CXR.U.Z.U.A.Y.Y.U.iXgX8 8 3X/.* y 0XvX=XCXCXCXCXCXCXCXCX`.[. X.X.X X X;X<XCXCXCX3.;.8 # @ m CXCX",
"CXCXY.A.c.A.U.z.A.A.uXeX8 - 4.;.+ 4 -X~.CXCXCXCXCXCXCXCXCXCXOX[.{.{.|.CXCXCXCXCXCXCXCXCXCXCXCXCX",
"CXCXCXZ.A.A.z.Z.A.c.z.iXhX-.@ 5.%.= # CXCXCXCXCXCXCXCXCXCXCXCXCXCXCXCXCXCXCXCXCXCXCXCXCXCXCXCXCX",
"CXCXCXCXZ.l.z.A.A.c.k.c.9XnX2.@ m 8 8 CXCXCXCXCXCXCXCXCXCXCXCXCXCXCXCXCXCXCXCXCXCXCXCXCXCXCXCXCX",
"CXCXCXCXCXCXx.l.c.z.z.k.k.0XnX4.$ 8 p CXCXCXCXCXCXCXCXCXCXCXCXCXCXCXCXCXCXCXCXCXCXCXCXCXCXCXCXCX",
"CXCXCXCXCXCXCXx.x.l.l.x.c.h.T.kX4.= CXCXCXCXCXCXCXCXCXCXCXCXCXCXCXCXCXCXCXCXCXCXCXCXCXCXCXCXCXCX",
"CXCXCXCXCXCXCXCXCXv.x.z.k.k.h.c.hX4.CXCXCXCXCXCXCXCXCXCXCXCXCXCXCXCXCXCXCXCXCXCXCXCXCXCXCXCXCXCX",
"CXCXCXCXCXCXCXCXCXCXCXZ.T.x.k.h.T.nXCXCXCXCXCXCXCXCXCXCXCXCXCXCXCXCXCXCXCXCXCXCXCXCXCXCXCXCXCXCX",
"CXCXCXCXCXCXCXCXCXCXCXCXCXCXx.x.x.CXCXCXCXCXCXCXCXCXCXCXCXCXCXCXCXCXCXCXCXCXCXCXCXCXCXCXCXCXCXCX"
};
