/* XPM */
static char *_3851_361738ea4264c376fbe39c4ad75c380caa71b3f4f3c3cddf4bf5ee54d206b1cd[] = {
/* columns rows colors chars-per-pixel */
"48 48 254 2 ",
"   c #010101",
".  c #090907",
"X  c #120B08",
"o  c #0A1709",
"O  c #141A10",
"+  c #2C150C",
"@  c #0B260C",
"#  c #162A0B",
"$  c #192713",
"%  c #113610",
"&  c #29290C",
"*  c #3B3816",
"=  c #302F14",
"-  c #2F2D26",
";  c #1B2E20",
":  c #51120A",
">  c #6D1205",
",  c #44260B",
"<  c #4D3213",
"1  c #652A08",
"2  c #035907",
"3  c #14520F",
"4  c #354D10",
"5  c #086703",
"6  c #0B7706",
"7  c #18710A",
"8  c #306C17",
"9  c #06462B",
"0  c #14532C",
"q  c #2B5328",
"w  c #036938",
"e  c #0A783B",
"r  c #196F2B",
"t  c #2C722C",
"y  c #4A4D17",
"u  c #487414",
"i  c #4E4E2E",
"p  c #79522B",
"a  c #547031",
"s  c #6B6F2D",
"d  c #7D7C15",
"f  c #2A7845",
"g  c #696F53",
"h  c #585644",
"j  c #891804",
"k  c #9B1502",
"l  c #830E05",
"z  c #B71901",
"x  c #A61402",
"c  c #8D2605",
"v  c #BB2903",
"b  c #A92409",
"n  c #C92A02",
"m  c #C73805",
"M  c #D43A05",
"N  c #D42E00",
"B  c #87521B",
"V  c #B0750B",
"C  c #925926",
"Z  c #AE4F24",
"A  c #8E6E25",
"S  c #AB742E",
"D  c #886113",
"F  c #DB4504",
"G  c #CE500B",
"H  c #E54E04",
"J  c #EB4D07",
"K  c #E65204",
"L  c #E65C04",
"P  c #E95D03",
"I  c #E85605",
"U  c #F54F09",
"Y  c #D37111",
"T  c #E96806",
"R  c #EA7305",
"E  c #E97909",
"W  c #E77A18",
"Q  c #E17928",
"!  c #AB7150",
"~  c #D57757",
"^  c #0B8704",
"/  c #158505",
"(  c #148C19",
")  c #159414",
"_  c #0F8B14",
"`  c #2D8D10",
"'  c #37AF0F",
"]  c #1A8A28",
"[  c #189A3C",
"{  c #1A9029",
"}  c #299233",
"|  c #28A728",
" . c #28A936",
".. c #38A938",
"X. c #2AB436",
"o. c #38B638",
"O. c #34B02B",
"+. c #1EA13A",
"@. c #4B9A18",
"#. c #4CAB13",
"$. c #6DBC1B",
"%. c #43952B",
"&. c #6F922E",
"*. c #58BC28",
"=. c #55BC39",
"-. c #4CB12D",
";. c #6CB32F",
":. c #758E18",
">. c #3BC13E",
",. c #59CA1A",
"<. c #52CC13",
"1. c #67CF0E",
"2. c #69D50B",
"3. c #74D807",
"4. c #68C817",
"5. c #6CD714",
"6. c #76DA16",
"7. c #73CC0D",
"8. c #78E70A",
"9. c #4CC42B",
"0. c #46C336",
"q. c #5BC52A",
"w. c #67C327",
"e. c #75C92B",
"r. c #7DD420",
"t. c #169842",
"y. c #188945",
"u. c #319447",
"i. c #1BA642",
"p. c #29AA47",
"a. c #2CB54C",
"s. c #38BA47",
"d. c #36AF52",
"f. c #44B756",
"g. c #51B74C",
"h. c #6FB848",
"j. c #52B66E",
"k. c #589B46",
"l. c #3BC443",
"z. c #5BC460",
"x. c #90891A",
"c. c #B39013",
"v. c #9BA11E",
"b. c #918A2C",
"n. c #A68F2B",
"m. c #8DAC2E",
"M. c #ACB131",
"N. c #ADBB1C",
"B. c #ED8B09",
"V. c #EC8508",
"C. c #EE990B",
"Z. c #ED9811",
"A. c #D2A410",
"S. c #EFA40C",
"D. c #F1A90C",
"F. c #F0A20D",
"G. c #F2B30C",
"H. c #F3BA0C",
"J. c #EBA817",
"K. c #F2AD11",
"L. c #F3B412",
"P. c #F3BB14",
"I. c #EFBA18",
"U. c #CC9634",
"Y. c #F0922A",
"T. c #DFBA38",
"R. c #E8B031",
"E. c #DF951F",
"W. c #8BD816",
"Q. c #A9D91C",
"!. c #A8CF17",
"~. c #85E708",
"^. c #95EC09",
"/. c #8FEA12",
"(. c #B7F807",
"). c #B8E91C",
"_. c #ABF611",
"`. c #84CC26",
"'. c #99D527",
"]. c #87CA35",
"[. c #99D639",
"{. c #8AD230",
"}. c #B5DB2A",
"|. c #A9DB3A",
" X c #A7D625",
".X c #B7E42A",
"XX c #8DEC22",
"oX c #D3CD13",
"OX c #F4C31A",
"+X c #F4C915",
"@X c #F6D617",
"#X c #F0C814",
"$X c #C5F70E",
"%X c #FCF014",
"&X c #CBD72D",
"*X c #F7CC23",
"=X c #EADA26",
"-X c #F7D528",
";X c #F3C838",
":X c #F9DC36",
">X c #E8CE32",
",X c #D7E629",
"<X c #DAE73C",
"1X c #C8E92D",
"2X c #EAE72A",
"3X c #F6E539",
"4X c #EAF031",
"5X c #91AC51",
"6X c #97926B",
"7X c #ADB663",
"8X c #93974A",
"9X c #CE834C",
"0X c #EFAF48",
"qX c #D49168",
"wX c #F6B868",
"eX c #CFA36B",
"rX c #90C952",
"tX c #AFD14E",
"yX c #B9E146",
"uX c #ABE541",
"iX c #B3C965",
"pX c #DAD457",
"aX c #D0D04F",
"sX c #E6CA49",
"dX c #C6E549",
"fX c #D6EA4C",
"gX c #D9EA51",
"hX c #FAE544",
"jX c #F8EB4C",
"kX c #F6E948",
"lX c #ECEF53",
"zX c #E2EB52",
"xX c #F4EE52",
"cX c #F9ED50",
"vX c #F1F055",
"bX c #EAEC49",
"nX c #CCCF65",
"mX c #F3D06D",
"MX c #EEE972",
"NX c #6DC791",
"BX c #76CBA7",
"VX c #B8B796",
"CX c #919181",
"ZX c #86CF8E",
"AX c #EFD890",
"SX c #F5E991",
"DX c #F8D6A8",
"FX c #F2D9B6",
"GX c #F7ECAF",
"HX c #CBC699",
"JX c #FBE9DA",
"KX c #FBE3C9",
"LX c #FBDEC4",
"PX c None",
/* pixels */
"PXPXPXPXPXPXPXPXPXPXPXPXPXPXPXPXPXPXPXPXPXPXPXPXPXPXPXPXPXPXPXPXPXPXPXPXPXPXPXPXPXPXPXPXPXPXPXPX",
"PXPXPXPXPXPXPXPXPXPXPXPX  . X . PXPXPXPXPXPXPXPXPXPXPXPX  PXPXPXPXPXPXPXPXPXPXPXPXPXPXPXPXPXPXPX",
"PXPXPXPXPXPXPXPXPXPXPX  i 7X6Xg i ; o . PXPXPXPXPXPX. i s & PXPXPXPXPXPXPXPXPXPXPXPXPXPXPXPXPXPX",
"PXPXPXPXPXPXPXPXPXPXX &.h.z.ZXZXz.o.( % . PXPXPXPX  s rX5Xk.$   PXPXPXPXPXPXPXPXPXPXPXPXPXPXPXPX",
"PXPXPXPXPXPXPXPX  = 6X&.u.NXZXj.X.) ^ 6 o PXPXPX  q h.s.a.d.d.0 . PXPXPXPXPXPXPXPXPXPXPXPXPXPXPX",
"PXPXPXPXPXPXPX  * rXh.{ j.BXNXf.O.) ^ 6 $ PXPXPXO } [ d.a.a.a.a.0     .   PXPXPXPXPXPXPXPXPXPXPX",
"PXPXPXPXPXPX  i tXg.[ ] j.BXj.-.` / / ^ 3 . PX  - p i q u.a.p.[ [ w r r q @ PXPXPXPXPXPXPXPXPXPX",
"PXPXPXPXPX  i iXg. .] 6 j.BXNXg.;.;.` / 6 o PXX C ~ ~ ! p r t.u.p.a.i.i.i.| @   PXPXPXPXPXPXPXPX",
"PXPXPXPX  i tXg.O.{ ( ) f.BXNXl.O.$.].:.7 %   & C ! 9XqXqX! r d.d.a.p.t.[  ...$ PXPXPXPXPXPXPXPX",
"PXPXPXPX= nX;...| ) _ _ d.NXNXj.O.) ` m.@.3 + < B S S ! qXqXq y.p.s.p.t.[ +.O.} o PXPXPXPXPXPXPX",
"PXPXPXo nX].O.| ( _ 6 6 r u.j.f.s.| / / #.u , < C U.A B p - 0 f p.d.a.i.[ [ +.o.t X PXPXPXPXPXPX",
"PXPX  8XuXO.) 3 % o o o . . @ 3 { | ) 6 7 ` # , S n.C B ; w w e p.f.s.p.[ [ +.| 9.q   PXPXPXPXPX",
"PXPXi gX@.3 @ . PXPXPXPX  + l l + 3 ( 6 5 6 5 , n.S B - 9 w w e } q %.s.p.} %.;.-.9.% PXPXPXPXPX",
"PXO aXa @ . PXPXPXPXPXX > x z z z l & 2 6 6 5 , S D = 9 w w w 0 8 m.&.a h.rX5XiXiX*.*.O PXPXPXPX",
"  s s . PXPXPXPXPXPX. j z z z z z z x + 2 5 5 & < < % 9 9 w 9 q *.<.XXm.i i 0 q 5XnX].@.. PXPXPX",
"X = . PXPXPXPXPXPX+ Z G m M M M F M n z : 2 2 3 r X.s.X.q % 2 9.<.,.3.).&.: + . $ a iXuX8   PXPX",
"PXPXPXPXPXPXPXPXO 9XQ T I K K P L K F F F = q o.l.s.o.>.0.-.' ' 4.W.3.~.1XA l X     4 7XtX& PXPX",
"PXPXPXPXPXPXPXX eX0XW T P T E Y.0XY.T K U 1  .l.o.s.>.>.0.9.5.4.' .X^.8.(.tXc : PXPX  $ 5Xm.. PX",
"PXPXPXPXPXPX  6XmXE.E R R V.wXDXJXDXY.L K m , t >.>.>.0.9.,.4.Q.7.7.(.^.$X4XA c X PXPX  O h.a   ",
"PXPXPXPXPXPX- GXsXZ.V.E V.0XDXJXJXJXwXT K H F > 3 O.o.9.,.4.1.7.Q.3.1X$X(.$Xb.Y 1 PXPXPXPXo s O ",
"PXPXPXPXPXPXg GXT.Z.B.V.C.wXFXJXJXJXwXR I J H F k 3 | *.,.1.1.3.(.Q.Q.(.~._.v.Y V   PXPXPXPX  . ",
"PXPXPXPXPX  CXGXT.J.C.C.D.mXKXJXJXKX0XR I J H H F c & ' ,.2.8._._.).).^.8.~.N.V A.. PXPXPXPXPXPX",
"PXPXPXPXPX. VXMXT.J.C.C.G.mXLXJXJXAXY.P I H H H H M k * ' 8.~.~.8.^.,X^.2.8.m.V OX& PXPXPXPXPXPX",
"PXPXPXPXPX. HXMXsXL.D.D.P.R.AXLXDXwXW P H H H H H H M b * <.5.8.5.2.W.W.1.8.m.V @X< PXPXPXPXPXPX",
"PXPXPXPXPX; DXmX>XI.I.D.H.#X;XsXR.Y.T K H H H J H H F n x 4 ' 2.1.2.5.3.1.W.m.V @Xy PXPXPXPXPXPX",
"PXPXPXPXPX- AXnXsX#XI.G.G.H.H.G.C.R P I K K K K H H K M n x 3 <.5.5.6.6.6.XXv.c.%Xy PXPXPXPXPXPX",
"PXPXPXPXPX; AXpXsX#XH.H.G.G.S.C.V.R T P I I K K K K J H m n l 8 5.5.6.6.8.).b.A.@X< PXPXPXPXPXPX",
"PXPXPXPXPX; AXpXsX*X+X#XH.G.D.C.B.V.R T T T P P P P P T H n n > ` 5.XXW./.).b.#X%X& PXPXPXPXPXPX",
"PXPXPXPXPX. HXMXpX=X+X+X+XH.G.D.C.C.V.V.E E R R R R R E R G v v , #.~.XX^.Q.x.%XoXX PXPXPXPXPXPX",
"PXPXPXPXPX  6XMXaX=X@X+X+X+XH.P.L.D.F.C.C.B.B.B.V.V.B.B.B.E G v x < 6./._.m.c.%Xn.  PXPXPXPXPXPX",
"PXPXPXPXPXPXi AXaXpX=X@X+X@X+X+XP.P.L.K.K.F.S.S.C.S.S.S.S.S.Y m z > %.^._.A oX%Xs PXPXPXPXPXPXPX",
"PXPXPXPXPXPX  VXzX&X=X@X@X@X-X*X*XOXOXP.I.L.L.L.L.L.L.L.H.#XJ.Y n b , W.Q.x.%X=X& PXPXPXPXPXPXPX",
"PXPXPXPXPXPXPXh MX&X&X=X@X@X:X-X-X-X*X*X*XOXOXOXI.P.OXOX*X*XI.E.G m Z u :.=X%XM.  PXPXPXPXPXPXPX",
"PXPXPXPXPXPXPX. 7XfX&X,X2X2X2X3X:X:X:X=X-X-X*X*X-X-X*X-X-X-X:X;XE.Y R.b.v.$XbX* PXPXPXPXPXPXPXPX",
"PXPXPXPXPXPXPXPX< vX}.1X,X4X3X3X3XkXhX3X:X:X:X:X:X:X:X:X3X3XhXhX;XR.>X3X,X%XA   PXPXPXPXPXPXPXPX",
"PXPXPXPXPXPXPXPX  A 4X X}.,X4X4XkXjXjXjXjXhXjXhXhXhXhXjXkXjXjXxXbXbX2X,X,XN.o PXPXPXPXPXPXPXPXPX",
"PXPXPXPXPXPXPXPXPX. }.&X!.}.1X<XbXbXvXxXxXxXcXcXcXcXcXxXxXxXvXvXbXfX,X).&X& PXPXPXPXPXPXPXPXPXPX",
"PXPXPXPXPXPXPXPXPXPX+ ,X!.'. X1XdXfXgXbXlXlXlXvXxXxXvXvXvXlXzXgX<X1X}.).4   PXPXPXPXPXPXPXPXPXPX",
"PXPXPXPXPXPXPXPXPXPX  y fX'.'.'.}.yXdXdXgXgXgXgXzXgXgXgXgXdXdX&X X XQ.y   PXPXPXPXPXPXPXPXPXPXPX",
"PXPXPXPXPXPXPXPXPXPXPX  s }.$.`.{.{.tXuXuXtXyXyXdXdXdXyXyXuX|.[.{.`.u   PXPXPXPXPXPXPXPXPXPXPXPX",
"PXPXPXPXPXPXPXPXPXPXPXPX  s |.$.e.e.`.].{.rXuX[.|.[.[.[.{.{.e.w.q.8   PXPXPXPXPXPXPXPXPXPXPXPXPX",
"PXPXPXPXPXPXPXPXPXPXPXPXPX  s r.$.*.w.e.e.e.e.e.e.e.e.e.e.w.=.-.0   PXPXPXPXPXPXPXPXPXPXPXPXPXPX",
"PXPXPXPXPXPXPXPXPXPXPXPXPXPX  4 $.*.*.q.w.w.w.w.w.w.,.*.*.*.| 3   PXPXPXPXPXPXPXPXPXPXPXPXPXPXPX",
"PXPXPXPXPXPXPXPXPXPXPXPXPXPXPX  # %.=.g.0.*.*.q.*.*.*.O.O.r o   PXPXPXPXPXPXPXPXPXPXPXPXPXPXPXPX",
"PXPXPXPXPXPXPXPXPXPXPXPXPXPXPXPXPX  % t f.f.s.o.O...X.] %   PXPXPXPXPXPXPXPXPXPXPXPXPXPXPXPXPXPX",
"PXPXPXPXPXPXPXPXPXPXPXPXPXPXPXPXPXPXPX  O 0 f y.r r %   PXPXPXPXPXPXPXPXPXPXPXPXPXPXPXPXPXPXPXPX",
"PXPXPXPXPXPXPXPXPXPXPXPXPXPXPXPXPXPXPXPXPX    . . . PXPXPXPXPXPXPXPXPXPXPXPXPXPXPXPXPXPXPXPXPXPX",
"PXPXPXPXPXPXPXPXPXPXPXPXPXPXPXPXPXPXPXPXPXPXPXPXPXPXPXPXPXPXPXPXPXPXPXPXPXPXPXPXPXPXPXPXPXPXPXPX"
};
