/* XPM */
static char *_069_420aa6428524e5817f8f91623c730c7325080bfce4885577f41f403c6c40da5c[] = {
/* columns rows colors chars-per-pixel */
"48 48 220 2 ",
"   c #351A1B",
".  c #311212",
"X  c #3A1E25",
"o  c #2C2329",
"O  c #362528",
"+  c #2A2838",
"@  c #382C33",
"#  c #401715",
"$  c #561D15",
"%  c #5A1D0E",
"&  c #6A151F",
"*  c #57241F",
"=  c #6A2818",
"-  c #772916",
";  c #681822",
":  c #781B26",
">  c #49262C",
",  c #4C292C",
"<  c #472629",
"1  c #572828",
"2  c #582E31",
"3  c #483236",
"4  c #5B353A",
"5  c #4F2F3B",
"6  c #632C27",
"7  c #683228",
"8  c #672734",
"9  c #742633",
"0  c #673635",
"q  c #74373A",
"w  c #772A28",
"e  c #744B2D",
"r  c #553C43",
"t  c #4F3F4C",
"y  c #773A45",
"u  c #584145",
"i  c #574553",
"p  c #68464B",
"a  c #7E4C43",
"s  c #794541",
"d  c #684B54",
"f  c #7B4554",
"g  c #6C5156",
"h  c #7C575E",
"j  c #485361",
"k  c #695663",
"l  c #7F5B66",
"z  c #726473",
"x  c #973519",
"c  c #912B1B",
"v  c #AB3B1E",
"b  c #A83718",
"n  c #B5381B",
"m  c #851C2A",
"M  c #8A3729",
"N  c #892935",
"B  c #962A39",
"V  c #893439",
"C  c #8F3229",
"Z  c #AA3D29",
"A  c #BB3F22",
"S  c #A4411E",
"D  c #BA461F",
"F  c #86453D",
"G  c #964633",
"H  c #96503C",
"J  c #954127",
"K  c #AD442A",
"L  c #A84424",
"P  c #BA4725",
"I  c #BD552D",
"U  c #B94B35",
"Y  c #B25635",
"T  c #A6513A",
"R  c #CA4C1E",
"E  c #C44C25",
"W  c #C74624",
"Q  c #CC5425",
"!  c #C8572A",
"~  c #D65B2C",
"^  c #D95628",
"/  c #CA5D39",
"(  c #CC5131",
")  c #E55928",
"_  c #E35F36",
"`  c #DC652B",
"'  c #D76828",
"]  c #D76536",
"[  c #C66B3A",
"{  c #E7692B",
"}  c #E6682A",
"|  c #E76C39",
" . c #E8743A",
".. c #F5763A",
"X. c #F36734",
"o. c #94374C",
"O. c #844848",
"+. c #88524A",
"@. c #965A49",
"#. c #9A5C53",
"$. c #8D4C53",
"%. c #AD5F49",
"&. c #966251",
"*. c #AA674A",
"=. c #BB6C4D",
"-. c #B36B4A",
";. c #A86A54",
":. c #AB7359",
">. c #BC745A",
",. c #B87455",
"<. c #BB6F50",
"1. c #855A61",
"2. c #AF546D",
"3. c #88676C",
"4. c #966669",
"5. c #976475",
"6. c #947472",
"7. c #A16963",
"8. c #B57566",
"9. c #AC7472",
"0. c #B66D76",
"q. c #C46747",
"w. c #D36847",
"e. c #C7795A",
"r. c #D97D59",
"t. c #D0754F",
"y. c #E67048",
"u. c #F57943",
"i. c #E37B59",
"p. c #C57967",
"a. c #86907B",
"s. c #A6847A",
"d. c #C7815B",
"f. c #DB8B55",
"g. c #F68757",
"h. c #CC8362",
"j. c #C98B64",
"k. c #D48D64",
"l. c #D98B6D",
"z. c #D49269",
"x. c #D78A72",
"c. c #CA8D76",
"v. c #E38B6C",
"b. c #1A318A",
"n. c #21379C",
"m. c #1D3AA8",
"M. c #1C41BD",
"N. c #7E7D91",
"B. c #405DBB",
"V. c #6E6CB0",
"C. c #1E4AD9",
"Z. c #1D42C1",
"A. c #2A4CCB",
"S. c #2D55DB",
"D. c #2C51CD",
"F. c #1D52F8",
"G. c #2453EB",
"H. c #2650E0",
"J. c #2559FE",
"K. c #295DFD",
"L. c #2757F4",
"P. c #325CF6",
"I. c #2D63FF",
"U. c #3667FE",
"Y. c #4666C9",
"T. c #4667D2",
"R. c #5373D3",
"E. c #687DD4",
"W. c #466CE3",
"Q. c #4C73E7",
"!. c #5276E2",
"~. c #426CF8",
"^. c #4B75F7",
"/. c #517AF5",
"(. c #885985",
"). c #C37E91",
"_. c #7F958E",
"`. c #7385CF",
"'. c #5A87FE",
"]. c #5B82E3",
"[. c #618DFE",
"{. c #6995FE",
"}. c #6786EC",
"|. c #72A0FD",
" X c #99828C",
".X c #B58585",
"XX c #A4948B",
"oX c #AB9B9B",
"OX c #B89C96",
"+X c #AF8C8F",
"@X c #93A699",
"#X c #BBA197",
"$X c #878AAE",
"%X c #B192B0",
"&X c #AAA5A5",
"*X c #B6ABA6",
"=X c #BFBEAD",
"-X c #AFAFB5",
";X c #D0A492",
":X c #C3ABB6",
">X c #CAB2AE",
",X c #C8C1B5",
"<X c #D7C8BB",
"1X c #E1C3B0",
"2X c #8C97CC",
"3X c #A9ACC6",
"4X c #B4B6CA",
"5X c #B0B6CF",
"6X c #BBC0D9",
"7X c #C5C4C7",
"8X c #D7C6CB",
"9X c #D9D2CC",
"0X c #D0D5D8",
"qX c #E3D7CC",
"wX c #E5DED4",
"eX c #E3E3D6",
"rX c #DDD9E4",
"tX c #E6E4E6",
"yX c #F2F1F3",
"uX c None",
/* pixels */
"uXuXuXuXuXuXuXuXuXuXuXuXuXuXuXuXuXuXuXuXuXuXuXuXuXuXuX9.@.uXuXuXuXuXuXuXuXuXuXuXuXuXuXuXuXuXuXuX",
"uXuXuXuXuXuXuXuXuXuXuXuXuXuXuXuXuXuXuXuXuXuXuXuX1.s 3.e 6 +.uXuXuXuXuXuXuXuXuXuXuXuXuXuXuXuXuXuX",
"uXuXuXuXuXuXuXuXuXuXuXuXuXuXuXuXuXuXuXuXuXuXuX0 3 3 r 2 6 0 uXuXuXuXuXuXuXuXuXuXuXuXuXuXuXuXuXuX",
"uXuXuXuXuXuXuXuXuXuXuXuXuXuXuXuXuXuXuXuXuXuXg 3 O O O 3 +.uXuXuXuXuXuXuXuXuXuXuXuXuXuXuXuXuXuXuX",
"uXuXuXuXuXuXuXuXuXuXuXuXuXuXuXuXuXuXuXuXuXuXz @ # % % = uXuX3 i uXuXuXuXuXuXuXuXuXuXuXuXuXuXuXuX",
"uXuXuXuXuXuXuXuXuXuXuXuXuXuXuXuXuXuXuXuXuXuX8.- H >XXXS L   . O uXuXuXuXuXuXuXuXuXuXuXuXuXuXuXuX",
"uXuXuXuXuXuXuXuXuXuXuXuXuXuXuXuX .] ]  . .] X.Q <XyX0X*.S u . o uXuXuXuXuXuXuXuXuXuXuXuXuXuXuXuX",
"uXuXuXuXuXuXuXuXuXuXuXuXuXuX~ L - * $ = I ` ) q.tXyXrX;.>.7X&.i uXuXuXuXuXuXuXuXuXuXuXuXuXuXuXuX",
"uXuXuXuXuXuXuXuXuXuXuXuXuXuXuXv L J w 1 m ^ ) e.yX@X@Xs.e _.#X*.uXuXuXuXuXuXuXuXuXuXuXuXuXuXuXuX",
"uXuXuXuXuXuXuXuXuXuXuXuXuXuXuXuXuXQ I L E ^ ^ =.qX,X-X>.J a.OXe G uXuXuXuXuXuXuXuXuXuXuXuXuXuXuX",
"uXuXuXuXuXuXuXuXuXuXuXuXuXuXuXuXuXuXuX( ^ ^ ( Q R / -.I / L L 2   q.uXuXuXuXuXuXuXuXuXuXuXuXuXuX",
"uXuXuXuXuXuXuXuXuXuXuXuXuXuXuXuXuXuXi./ W w.r.] ~ Q R ' ' [ e.e 3 p uXuXuXuXuXuXuXuXuXuXuXuXuXuX",
"uXuXuXuXuXuXuXuXuXuXuX .u.u... . .` ` ^ ( x.+.;Xv.f.y. . .g.@.@   j uXuXuXuXuXuXuXuXuXuXuXuXuXuX",
"uXuXuXuXuXuXuXuXuXuXuXX.{ { } } } } ^ W w.>.s eX1Xx.x.z.z.h.a o o 3.uXuXuXuXuXuXuXuXuXuXuXuXuXuX",
"uXuXuXuXuXuXuXuXuXuX..` D D Q Q ^ ^ ^ A / ,.4.wXeX<Xc.,.=.@.+XJ - x I uXuXuXuXuXuXuXuXuXuXuXuXuX",
"uXuXuXuXuXuXuXuXuXuX..~ uXuXx x b v v n K p.l.9.;X,X=XXX6.#.F = - - S ! uXuXuXuXuXuXuXuXuXuXuXuX",
"uXuXuXuXuXuXuXuXuXuX| Q uXuXuXuXuXuXM b n =.h.l.p.8.s.3.1.#.M uXuXuXK Q uXuXuXuXuXuXuXuXuXuXuXuX",
"uXuXuXuXuXuXuXuXuXuX~ P uXuXuXuXuXuXuXK b <.,.*.e.p.,.*.>XuXuXuXuXuXuXE I uXuXuXuXuXuXuXuXuXuXuX",
"uXuXuXuXuXuXuXuXuXuXW K uXuXuXuXuXuXuXU b q.,.@.f +.a 4.uXuXuXuXuXuXuXZ x uXuXuXuXuXuXuXuXuXuXuX",
"uXuXuXuXuXuXuXuXuXuXA K uXuXuXuXuXuXuXuXn q.j.:.@.a p 7.uXuXuXuXuXuXuXuXc O.uXuXuXuXuXuXuXuXuXuX",
"uXuXuXuXuXuXuXuXuXO.M q uXuXuXuXuXuXuXuXP / z.d.,.*.:.uXuXuXuXuXuXuXuXuX7 4 uXuXuXuXuXuXuXuX9X*X",
"uXuXuXuXuXuXuXuXk 0 , r uXuXuXuXuXuXuXuXU W z.h.:.&.8.uXuXuXuXuXuXuXuXuX5 3 uXuXuXuXuXuXuXuX&X&X",
"uXuXuXuXuXuXuXuXuXd 2 r uXuXuXuXuXuXuXuXuXA r.k.d.*.:.uXuXuXuXuXuXuXuXuX0 0 uXuXuXuXuXuXuXuXuXuX",
"uXuXuXuXuXuXuXuXuXO.q 0 p uXuXuXuXuXuXuXuXP / k.d.-.:.uXuXuXuXuXuXuXuX0 1 G uXuXuXuXuXuXuXuXuXuX",
"uXuXuXuXuXuXuXuXuXy.Q q 2 p uXuXuXuXuXuXuXU W k.d.-.;.uXuXuXuXuXuXuX-.2 , F uXuXuXuXuXuXuXuXuXuX",
"uX*XuXuXuXuXuXuXuXv.` 0 2 # H uXuXuXuXuXuXuXP t.j.-.;.uXuXuXuXuXuXuXR p , k uXuXuXuXuXuXuXuXuXuX",
"*X&XuXuXuXuXuXuXuX9.G 2 3 + x ( uXuXuXuXuXuXW ` f.<.&.uXuXuXuXuXuX).( F 2 (.uXuXuXuXuXuXuXuXuXuX",
"uXuXuXuXuXuXuXuXuXk , 1 , 5 ^ #.uXuXuXuXuXuXuX(.V.V._.G.uXuXuXuX5XuX| L i uXuXuXuXuXuXuXuXuXuXuX",
"uXuXuXuXuXuXuXuXuX1 X   < * I uXuX5X5X6XuXuXuXI.F.2X$XE.uXuX3X4XuXuXuXuXuXuXuXuXuXuXuXuXuXuXuXuX",
"uXuXuXuXuXuXuXuXuXL 6 < uX7 uXuXuXuX3X4X3X4X2XP.P.2XS.S.^.-X4XuXuXuXuXuXuXuXuXuXuXuXuXuXuXuXuXuX",
"uXuXuXuXuXuXuXuXuXK Y S U uXuXuXuXuXuXuX3X4X`.J.L.C.C.L.H.^.uXuXuXuXuXuXuXuXuXuXuXuXuXuXuXuXuXuX",
"uXuXuXuXuXuXuXuXuXuXuXuXS uXuXuXuXuXuXuXuXuX~.I.L.m.M.L.J.P.uXuXuXuXuXuXuXuXuXuXuXuXuXuXuXuXuXuX",
"uXuXuXuXuXuXuXuXuXuXuXuXuXuXuXuXuXuXuXuXuXuXU.I.C.b.b.C.K.L.S.uXuXuXuXuXuXuXuXuXuXuXuXuXuXuXuXuX",
"uXuXuXuXuXuXuXuXuXuXuXuXuXuXuXuXuXuXuXuXuX~.I.J.M.uXuXA.J.J.C.uXuXuXuXuXuXuXuXuXuXuXuXuXuXuXuXuX",
"uXuXuXuXuXuXuXuXuXuXuXuXuXuXuXuXuXuXuXuX[.U.U.G.m.uXuXD.G.K.D.T.uXuXuXuXuXuXuXuXuXuXuXuXuXuXuXuX",
"uXuXuXuXuXuXuXuXuXuXuXuXuXuXuXuXuXuXuXuX{.^.I.C.n.uXuXuXT./.R.T.uXuXuXuXuXuXuXuXuXuXuXuXuXuXuXuX",
"uXuXuXuXuXuXuXuXuXuXuXuXuXuXuXuXuXuXuX|.[.'.T.A.uXuXuXuX!.Q.Y.Y.uXuXuXuXuXuXuXuXuXuXuXuXuXuXuXuX",
"uXuXuXuXuXuXuXuXuXuXuXuXuXuXuXuXuXuXuX[.[./.Y.R.uXuXuXuX!.Q.T.Y.uXuXuXuXuXuXuXuXuXuXuXuXuXuXuXuX",
"uXuXuXuXuXuXuXuXuXuXuXuXuXuXuXuXuXuXuX}.'.W.B.].uXuXuXuX!.Q.R.R.uXuXuXuXuXuXuXuXuXuXuXuXuXuXuXuX",
"uXuXuXuXuXuXuXuXuXuXuXuXuXuXuXuXuXuXuX+XE.Y.Y.uXuXuXuXuXuX Xg uXuXuXuXuXuXuXuXuXuXuXuXuXuXuXuXuX",
"uXuXuXuXuXuXuXuXuXuXuXuXuXuXuXuXuXuXy $ X uXuXuXuXuXuXuXuXq . X uXuXuXuXuXuXuXuXuXuXuXuXuXuXuXuX",
"uXuXuXuXuXuXuXuXuXuXuXuXuXuXuXuXuXuXo.4 t uXuXuXuXuXuXuXuX; r  XuXuXuXuXuXuXuXuXuXuXuXuXuXuXuXuX",
"uXuXuXuXuXuXuXuXuXuXuXuXuXuXuXuXuXuX8X:X%X%XuXuXuXuXuXuXuX1.rXyX8X).0.2.uXuXuXuXuXuXuXuXuXuXuXuX",
"uXuXuXuXuXuXuXuXuXuXuXuXuXuXuXuXuXuX0.B o.o.2.uXuXuXuXuXy f 5.:Xo.m N o.o.uXuXuXuXuXuXuXuXuXuXuX",
"uXuXuXuXuXuXuXuXuXuXuXuXuXuXuXuXuX5.o.B N : y uXuXuXuXuX-X1.8 8 N N 9 m 8 uXuXuXuXuXuXuXuXuXuXuX",
"uXuXuXuXuXuXuXuXuXuXuXuXuXuXuXuXuX5.: : m & 1 uXuXuXuXuXuXtXoXl 8 ; ; ; ; 1.uXuXuXuXuXuXuXuXuXuX",
"uXuXuXuXuXuXuXuXuXuXuXuXuXuXuXuXuX8X4.$.y q g -XuXuXuXuXuXuXwX<X>X*XOXoXXX7XuXuXuXuXuXuXuXuXuXuX",
"uXuXuXuXuXuXuXuXuXuXuXuXuXuXuXuXuXuXwX9X>X*X&XuXuXuXuXuXuXuXuXuXuXuXuXuXuXuXuXuXuXuXuXuXuXuXuXuX"
};
