/* XPM */
static char *_8670_a73a3b7e948b0ef04cb111e9482fa5fcf9e17255b2b1b74637c183f7e4b728c1[] = {
/* columns rows colors chars-per-pixel */
"48 48 243 2 ",
"   c #39151B",
".  c #291C1D",
"X  c #361924",
"o  c #392B2D",
"O  c #4A1B1B",
"+  c #570E12",
"@  c #6C0C16",
"#  c #68131C",
"$  c #730C19",
"%  c #6A251A",
"&  c #792212",
"*  c #441E24",
"=  c #631622",
"-  c #781923",
";  c #492828",
":  c #5B2A2B",
">  c #592627",
",  c #592D31",
"<  c #4E3639",
"1  c #543333",
"2  c #5A3838",
"3  c #51302F",
"4  c #692A27",
"5  c #7A272A",
"6  c #7A3529",
"7  c #662D34",
"8  c #772C34",
"9  c #653434",
"0  c #6A3C3C",
"q  c #64393A",
"w  c #763936",
"e  c #6C322D",
"r  c #50211F",
"t  c #5E4037",
"y  c #7C4339",
"u  c #606226",
"i  c #6B3B42",
"p  c #773942",
"a  c #533B43",
"s  c #57474A",
"d  c #4E4B55",
"f  c #784649",
"g  c #6D4A51",
"h  c #6F5667",
"j  c #882A16",
"k  c #9A361A",
"l  c #933218",
"z  c #A73816",
"x  c #AB3111",
"c  c #851D29",
"v  c #9C1429",
"b  c #83252A",
"n  c #853928",
"m  c #872A35",
"M  c #893535",
"N  c #97302D",
"B  c #A63B24",
"V  c #B83A22",
"C  c #841D1D",
"Z  c #C83918",
"A  c #D13C14",
"S  c #D12F31",
"D  c #A7401E",
"F  c #8A4137",
"G  c #974938",
"H  c #94432C",
"J  c #A84427",
"K  c #BB472A",
"L  c #A84C34",
"P  c #B24F34",
"I  c #CA451C",
"U  c #D9451A",
"Y  c #DA5519",
"T  c #E64619",
"R  c #ED521C",
"E  c #D94924",
"W  c #CB5329",
"Q  c #DA562A",
"!  c #C65636",
"~  c #D85834",
"^  c #C74930",
"/  c #E34C24",
"(  c #EA4E23",
")  c #EA5424",
"_  c #E55929",
"`  c #F75A24",
"'  c #F2552B",
"]  c #D7622D",
"[  c #E8652A",
"{  c #FD622A",
"}  c #FE6C2B",
"|  c #F76725",
" . c #FB762D",
".. c #E66335",
"X. c #FB6D32",
"o. c #FA6837",
"O. c #EB733A",
"+. c #FC7433",
"@. c #FD7C34",
"#. c #F77538",
"$. c #EA621E",
"%. c #833443",
"&. c #B62D47",
"*. c #D63B56",
"=. c #CF394F",
"-. c #854747",
";. c #895655",
":. c #995A57",
">. c #924D51",
",. c #AE514F",
"<. c #B76448",
"1. c #B6695A",
"2. c #9B6763",
"3. c #927B75",
"4. c #A57772",
"5. c #AB6D70",
"6. c #856059",
"7. c #C45B46",
"8. c #CC4753",
"9. c #CB595A",
"0. c #D24754",
"q. c #C46A4C",
"w. c #CD6948",
"e. c #DB6B45",
"r. c #D5744A",
"t. c #C87856",
"y. c #D57855",
"u. c #CC6F55",
"i. c #F77443",
"p. c #E57957",
"a. c #EF714B",
"s. c #CD786D",
"d. c #E04C5A",
"f. c #64896B",
"g. c #FA813B",
"h. c #B0895A",
"j. c #908D73",
"k. c #B68F60",
"l. c #BA9465",
"z. c #BC9769",
"x. c #BD9A6C",
"c. c #BA9465",
"v. c #B79B77",
"b. c #DD8258",
"n. c #F6874C",
"m. c #E7875B",
"M. c #F28958",
"N. c #ED915D",
"B. c #FA975D",
"V. c #ED8F49",
"C. c #DB8764",
"Z. c #C49C6C",
"A. c #C49A68",
"S. c #C49A75",
"D. c #D79375",
"F. c #E28561",
"G. c #E98B66",
"H. c #EC9361",
"J. c #E99469",
"K. c #F49569",
"L. c #E89A78",
"P. c #F69572",
"I. c #F68F6B",
"U. c #CBA26E",
"Y. c #CDA673",
"T. c #C7A677",
"R. c #D2AA76",
"E. c #D7B17B",
"W. c #F4A379",
"Q. c #F8A570",
"!. c #0F31B1",
"~. c #2F48A3",
"^. c #795490",
"/. c #777DB4",
"(. c #536AB6",
"). c #0D3AD6",
"_. c #2C4AD1",
"`. c #2D52D1",
"'. c #3F62C3",
"]. c #1648F5",
"[. c #2655E8",
"{. c #2456F7",
"}. c #2F56ED",
"|. c #2B63FB",
" X c #2A67FB",
".X c #346BFD",
"XX c #3866F8",
"oX c #3365EB",
"OX c #1F45C5",
"+X c #5772D6",
"@X c #6473D2",
"#X c #587BEB",
"$X c #4E78F4",
"%X c #557BFC",
"&X c #577AF6",
"*X c #4471ED",
"=X c #4858DB",
"-X c #8574A5",
";X c #5988FB",
":X c #5B87F0",
">X c #6389FD",
",X c #6286FA",
"<X c #6C8EEA",
"1X c #698AD3",
"2X c #BA8884",
"3X c #B3968B",
"4X c #BFAE8C",
"5X c #8E88AD",
"6X c #AAB9A2",
"7X c #CF958B",
"8X c #E5978A",
"9X c #D6B69B",
"0X c #CCAF96",
"qX c #EBAF92",
"wX c #CBB4A4",
"eX c #D3B9A8",
"rX c #D6B9B6",
"tX c #E4B2A5",
"yX c #B6C1B1",
"uX c #DCC295",
"iX c #E4C696",
"pX c #F1C996",
"aX c #D6C5A9",
"sX c #DAC8B9",
"dX c #DCD1BC",
"fX c #E6C7A5",
"gX c #E7C7B3",
"hX c #E9D8B9",
"jX c #F1D9B2",
"kX c #EFE2BD",
"lX c #8B96CC",
"zX c #A4BEEB",
"xX c #93ABE0",
"cX c #AEC6EE",
"vX c #D9CFC8",
"bX c #F3DEC7",
"nX c #EEE2C6",
"mX c #F9EBD7",
"MX c #F1EAD2",
"NX c #FEFAE8",
"BX c #FEFFFE",
"VX c #FFFFF3",
"CX c None",
/* pixels */
"CXCXCXCXCXCXCXCXCXCXCXCXCXCXCXCXCXCXCXCXCXCXCXCXCXCXCXCXCXL CXCXCXCXCXCXCXCXCXCXCXCXCXCXCXCXCXCX",
"CXCXCXCXCXCXCXCXCXCXCXCXCXCXCXCXCXCXCXCXCXCXCXCXCXCXCXP ,.L G CXCXCXCXCXCXCXCXCXCXCXCXCXCXCXCXCX",
"CXCXCXCXCXCXCXCXCXCXCXCXCXCXCXCXCXCXCXCXCXCXCXCXCXCXH H H G G CXCXCXCXt CXCXCXCXCXCXCXCXCXCXCXCX",
"CXCXCXCXCXCXCXCXCXCXCXCXCXCXCXCXCXCXCXCXCXCXCX>.G F G J G F G CXf t t 1 s CXCXCXCXCXCXCXCXCXCXCX",
"CXCXCXCXCXCXCXCXCXCXCXCXCXCXCXCXCXCXCXCXCXCXCXn F F 6 j L F 6 f 0 2 1 1 < s CXCXCXCXCXCXCXCXCXCX",
"CXCXCXCXCXCXCXCXCXCXCXCXCXCXCXCXCXCXCXCXCXCXy w e y w e 6 6 CXt 2 t 1 3 1 < CXCXCXCXCXCXCXCXCXCX",
"CXCXCXCXCXCXCXCXCXCXCXCXCXCXCXCXCXCXCXCXCXw q 2 2 2 t t 2 t P ..~ E U CXCXCXCXCXCXCXCXCXCXCXCXCX",
"CXCXCXCXCXCXCXCXCXX._ [ CXCXCXCXCXCXCXCXCXn w 2 2 1 3 ; 3 3 < P a.qXL.~ CXCXCXCXCXCXCXCXCXCXCXCX",
"CXCXCXCXCXCXCXCXE ' I k l k z W [ g.g.X...i.7.o 3 9 h 3.j.3.;.B W.VXNXeXX.O.P W _ CXCXCXCXCXCXCX",
"CXCXCXCXCXCXCXCXCXCX..Q B 6 % % & z _ +.o.{ _ L P sXBXBXBXBXNXe.K.NXNXNXq.j B _ CXCXCXCXCXCXCXCX",
"CXCXCXCXCXCXCXCXCXCXCX..[ W J n 6 % j U { ` ` { p.BXBXBXBX6Xf.K.V.yX6XVX2Xk [ CXCXCXCXCXCXCXCXCX",
"CXCXCXCXCXCXCXCXCXCXCXCXCX[ _ Q K J J Y ` ` ` ` e.gXbXmXMXaX4Xm.g.u j.VX8XE CXCXCXCXg g CXCXCXCX",
"CXCXCXCXCXCXCXCXCXCXCXCXCXCXCX_ $.) ) ) ) ( ( ` ` ` $.[ [ #. .[ | g.g.Q.r.[ CXCXs s s s d CXCXCX",
"CXCXCXCXCXCXCXCXCXCXCXCXCXCXCXCXCXU E / / ..p.M.a.i.#.#. .| | | | } | | @.V.<.; o o o o CXCXCXCX",
"CXCXCXCXCXCXCXCXCXCXCXCXCXCXCXCX~ / / E a.J.u.9.D.W.K.P.P.P.P.I.I.I.I.P.K.K.t.y o . . CXCXCXCXCX",
"CXCXCXCXCXCXCXCXCXCXCXCXCXCXCXa./ / E _ I.m.0.&.,.8XtXqX8XG.y.m.m.F.C.b.y.t.r.CXCXCXCXCXCXCXCXCX",
"CXCXCXCXCXCXCXCXCXCXCXCXCXO.i.` ' ( U Q F.8.*.*.*.=.d.7XtXtXgXqXD.D.C.t.q...a.i.a.CXCXCXCXCXCXCX",
"CXCXCXCXCXCXCXCXCXCXCXCXi.} +.X.` ' T A e.8.*.*.*.=.=.S S d.5.4.wX7XD.8Xe.o.o.o.{ o.#.CXCXCXCXCX",
"CXCXCXCXCXCXCXCXCXCXCX#.+.@.@.+.X.` T A W w.8.*.*.*.*.d.9.M # + 7Xs.v y.A E Z Z I Y X.CXCXCXCXCX",
"CXCXCXCXCXCXCXCXCXCX#.@.@.@.+.} { ` T A Z w.q.7.7.9.s.8XgXsXtX9XjX7Xu.C.CXCXCXCXCXx Y o.CXCXCXCX",
"CXCXCXCXCXCXCXCXCXi.g.g.@.+.{ ` R T Z A A E y.u.q.<.t.b.G.8XqXpXW.C.L.CXCXCXCXCXCXCXz I ^ 5 CXCX",
"CXCXCXCXCXCXCXCXCXi.g.@.+.` R / S x x V Z V :.p 4 > f -.<.w.r.e.y.y.CXCXCXCXCXCXCXCXj k B w CXCX",
"CXCXCXCXCXCXCXCX@.g.@.} ` ( E CXCXV V E ~ ~ p , > > q < t <.b.m.C.CXCXCXCXCXCXCXCXCXX O O 9 CXCX",
"CXCXCXCXCXCXCXi.g. .} | ` CXCXg h >...X.+.~ i 7 , : , q y M.Q.K.CXCXCXCXCXCXCXCXCXCX,   4 w f CX",
"CXCXCXCXCXCXa.g.@.} ..Q ~ i 0 i g K } X.! w q 9 4 1 a ; > C.Q.N.CXCXCXCXCXCXCXCXCX( ! s 9 w g CX",
"CXCXCXCXCXCXO. . . .` / P i 0 , 7 K ! F i 0 0 t 0 w i 2 L B.B.CXCXCXCXCXCXCXCXCXCX..w.2 4 % q h ",
"CXCXCXCXCXCXCX[ [ Y Y I B p : * > > ;           O ; ; e M.B.H.CXCXCXCXCXCXCXCXCXCXO.] j r r O 4 ",
"CXCXCXCXCXCXCXCXCXCXCXCXCXCX  X ; * X 7 5 b L 1.J j % z n.H.CXCXCXCXCXCXCXCXCXCXCXCXCXCXCXCXCXCX",
"CXCXCXCXCXCXCXCXCXCXCXCXCXCXCXCXCXCXCX' / U n.W.B.M.M.B.N.CXCXCXCXCXCXCXCXCXCXCXCXCXCXCXCXCXCXCX",
"CXCXCXCXCXCXCXCXCXCXCXCXCXCXCXCXCXCXCX~ U Q J.N.H.K.H.N.b.CXCXCXCXCXCXCXCXCXCXCXCXCXCXCXCXCXCXCX",
"CXCXCXCXCXCXCXCXCXCXnXuX9XCXCXCXCXCXCXQ I b.J.H.N.m.N.C.CXCXCXCXCXCXCXCXCXCXCXCXCXCXCXCXCXCXCXCX",
"CXCXCXCXCXCXCXNXbX3X:.M m ;.CXCXCXCXCX( [ K.N.N.m.G.G.CXCXCXCXCXCXCXCXCXCXCXCXCXCXCXCXCXCXCXCXCX",
"CXCXCXCXCXCXmX0X-.- m v N m CXCXCXCXCX^.s.L.M.M.B.K.F.CX_._._.CXCXCXCXCXCXCXCXCXCXCXCXCXCXCXCXCX",
"CXCXCXCXNXvX2.- m %.N m c m >.CXCXCXoX XXX}.lXwX-X-X=X{.}.XX&X&X#XCXCXCXCXCXCXCXCXCXCXCXCXCXCXCX",
"CXCXCXmX7X8 c >.N c c %.^.@X@X#XCXoXXX.XXXzXcXcXcX].{.].XX&X,X>X,X:XCXCXCXCXCXCXCXCXCXCXCXCXCXCX",
"CXNXdX2.- b :.vXbX1.-.#X;X;X$X&X*X|..X.XXXzXoX#X&X].).}.%X%X,X>X,X,XCXCXCXCX5 # 5 2.wXfXfXCXCXCX",
"3X4.8 $ m eXMXwXwXaXxX;X;X;X$XXX X X.X.X.X{.|.[.).!.!.'.%X%X>X>X>X>X:XCXCXb @ F 9XjXiXE.E.E.CXCX",
"CX# - 2XsXwXsXaX0X4XxX;X;X%XXX{..X.X.X.XXX[.OXCXCXCXCX>X%X$X@X/.(.+X:XCXm @ :.bXpXR.R.Z.U.U.R.CX",
"CXM b 2XvXwX3Xv.v.v.CX<X;X X X X.X.X.X}._.CXCXCXCXCXCX:X*X5XfXpXj.OX1X7X= :.nXiXU.Y.R.R.T.U.Y.CX",
"CXCXm @ # w ;.3.CXCXCX<X;X X X.X.X X[.`.CXCXCXCXCXCXCXCX'.vX0Xn = -X3X8 w gXiXU.U.R.Z.U.A.U.R.CX",
"CXCXCXCXCXCXCXCXCXCXCXCXCX|.{.{.[.OXCXCXCXCXCXCXCXCXCXCX~.-X4 + ;.5.5 8 aXuXA.A.A.U.A.A.A.Y.CXCX",
"CXCXCXCXCXCXCXCXCXCXCXCXCXCXCXCXCXCXCXCXCXCXCXCXCXCXCXCXCX= = %.5.@ -.dXiXc.c.Z.U.z.z.z.Z.CXCXCX",
"CXCXCXCXCXCXCXCXCXCXCXCXCXCXCXCXCXCXCXCXCXCXCXCXCXCXCXCXCX8 5 5 @ 2.kXuXk.k.c.A.z.c.c.U.CXCXCXCX",
"CXCXCXCXCXCXCXCXCXCXCXCXCXCXCXCXCXCXCXCXCXCXCXCXCXCXCXCXCX%.8 - 4.nX9Xk.k.z.x.l.c.z.CXCXCXCXCXCX",
"CXCXCXCXCXCXCXCXCXCXCXCXCXCXCXCXCXCXCXCXCXCXCXCXCXCXCXCXCXCX= 4.hXT.h.l.z.l.l.x.x.CXCXCXCXCXCXCX",
"CXCXCXCXCXCXCXCXCXCXCXCXCXCXCXCXCXCXCXCXCXCXCXCXCXCXCXCXCXCX4.hXl.h.k.k.l.x.v.CXCXCXCXCXCXCXCXCX",
"CXCXCXCXCXCXCXCXCXCXCXCXCXCXCXCXCXCXCXCXCXCXCXCXCXCXCXCXCXCXnXT.h.l.z.v.T.CXCXCXCXCXCXCXCXCXCXCX",
"CXCXCXCXCXCXCXCXCXCXCXCXCXCXCXCXCXCXCXCXCXCXCXCXCXCXCXCXCXCXCXx.T.x.CXCXCXCXCXCXCXCXCXCXCXCXCXCX"
};
